mtllib eff_enem_MA_Duon_Kagemusi2_pori_S07_M.mtl

v -1.225343 0.090455 0.398137
v -0.230488 0.090455 0.074890
v -0.230488 0.090455 -0.074890
v -0.757303 0.090455 1.042338
v -1.372158 0.090455 1.888612
v 0.000000 0.090455 2.334452
v 0.000000 0.090455 3.885328
v 1.372157 0.090455 1.888612
v 2.283739 0.090455 3.143296
v 2.220194 0.090455 0.721384
v 3.695166 0.090455 1.200633
v 2.220198 0.090455 -0.721385
v 3.695168 0.090455 -1.200631
v 1.372157 0.090455 -1.888612
v 2.283739 0.090455 -3.143296
v 0.000000 0.090455 -2.334451
v 0.000000 0.090455 -3.885327
v -2.283739 0.090455 -3.143296
v -0.142450 0.090455 0.196065
v 0.000000 0.090455 1.288401
v 0.757304 0.090455 1.042338
v 1.225342 0.090455 0.398137
v 1.225342 0.090455 -0.398137
v 0.757304 0.090455 -1.042339
v 0.000000 0.090455 -1.288401
v -1.372156 0.090455 -1.888612
v -3.695167 0.090455 -1.200631
v 0.230490 0.090455 -0.074890
v 0.142451 0.090455 -0.196065
v 0.230490 0.090455 0.074890
v 0.142451 0.090455 0.196065
v 0.000000 0.090455 0.242350
v 0.000000 0.090455 -0.242350
v -0.757303 0.090455 -1.042339
v -2.220197 0.090455 -0.721385
v -3.695166 0.090455 1.200633
v -0.142450 0.090455 -0.196065
v -1.225343 0.090455 -0.398137
v -2.220194 0.090455 0.721384
v -2.283739 0.090455 3.143296

vt 0.575106 0.304963
vt 0.575106 0.390151
vt 0.424893 0.390151
vt 0.725320 0.304963
vt 0.725320 0.219775
vt 0.875532 0.219775
vt 0.875532 0.093475
vt 0.725320 0.219775
vt 0.725320 0.093475
vt 0.575106 0.219775
vt 0.575107 0.093475
vt 0.424893 0.219775
vt 0.424894 0.093475
vt 0.274681 0.219775
vt 0.274681 0.093475
vt 0.124468 0.219775
vt 0.124468 0.093475
vt 0.274681 0.093475
vt 0.725320 0.390151
vt 0.875532 0.304963
vt 0.725320 0.304963
vt 0.575106 0.304963
vt 0.424894 0.304963
vt 0.274681 0.304963
vt 0.124468 0.304963
vt 0.274681 0.219775
vt 0.424894 0.093475
vt 0.424893 0.390151
vt 0.274681 0.390151
vt 0.575106 0.390151
vt 0.725320 0.390151
vt 0.875532 0.390151
vt 0.124468 0.390151
vt 0.274681 0.304963
vt 0.424893 0.219775
vt 0.575107 0.093475
vt 0.274681 0.390151
vt 0.424894 0.304963
vt 0.575106 0.219775
vt 0.725320 0.093475

vn 0.000000 1.000000 0.000000
vn 0.000000 1.000000 0.000000
vn 0.000000 1.000000 0.000000
vn 0.000000 1.000000 0.000000
vn 0.000000 1.000000 0.000000
vn 0.000000 1.000000 0.000000
vn 0.000000 1.000000 0.000000
vn 0.000000 1.000000 0.000000
vn 0.000000 1.000000 0.000000
vn 0.000000 1.000000 0.000000
vn 0.000000 1.000000 0.000000
vn 0.000000 1.000000 0.000000
vn 0.000000 1.000000 0.000000
vn 0.000000 1.000000 0.000000
vn 0.000000 1.000000 0.000000
vn 0.000000 1.000000 0.000000
vn 0.000000 1.000000 0.000000
vn 0.000000 1.000000 0.000000
vn 0.000000 1.000000 0.000000
vn 0.000000 1.000000 0.000000
vn 0.000000 1.000000 0.000000
vn 0.000000 1.000000 0.000000
vn 0.000000 1.000000 0.000000
vn 0.000000 1.000000 0.000000
vn 0.000000 1.000000 0.000000
vn 0.000000 1.000000 0.000000
vn 0.000000 1.000000 0.000000
vn 0.000000 1.000000 0.000000
vn 0.000000 1.000000 0.000000
vn 0.000000 1.000000 0.000000
vn 0.000000 1.000000 0.000000
vn 0.000000 1.000000 0.000000
vn 0.000000 1.000000 0.000000
vn 0.000000 1.000000 0.000000
vn 0.000000 1.000000 0.000000
vn 0.000000 1.000000 0.000000
vn 0.000000 1.000000 0.000000
vn 0.000000 1.000000 0.000000
vn 0.000000 1.000000 0.000000
vn 0.000000 1.000000 0.000000

g polygon0
s 1
usemtl mat2
f 1/1/1 2/2/2 3/3/3
f 1/1/1 4/4/4 2/2/2
f 5/5/5 4/4/4 1/1/1
f 5/5/5 6/6/6 4/4/4
f 7/7/7 6/6/6 5/5/5
f 7/7/7 8/8/8 6/6/6
f 9/9/9 8/8/8 7/7/7
f 9/9/9 10/10/10 8/8/8
f 11/11/11 10/10/10 9/9/9
f 11/11/11 12/12/12 10/10/10
f 13/13/13 12/12/12 11/11/11
f 13/13/13 14/14/14 12/12/12
f 15/15/15 14/14/14 13/13/13
f 15/15/15 16/16/16 14/14/14
f 17/17/17 16/16/16 15/15/15
f 17/17/17 18/18/18 16/16/16
f 4/4/4 19/19/19 2/2/2
f 4/4/4 20/20/20 19/19/19
f 6/6/6 20/20/20 4/4/4
f 6/6/6 21/21/21 20/20/20
f 8/8/8 21/21/21 6/6/6
f 8/8/8 22/22/22 21/21/21
f 10/10/10 22/22/22 8/8/8
f 10/10/10 23/23/23 22/22/22
f 12/12/12 23/23/23 10/10/10
f 12/12/12 24/24/24 23/23/23
f 14/14/14 24/24/24 12/12/12
f 14/14/14 25/25/25 24/24/24
f 16/16/16 25/25/25 14/14/14
f 16/16/16 26/26/26 25/25/25
f 18/18/18 26/26/26 16/16/16
f 18/18/18 27/27/27 26/26/26
f 28/28/28 23/23/23 29/29/29
f 28/28/28 22/22/22 23/23/23
f 30/30/30 22/22/22 28/28/28
f 30/30/30 21/21/21 22/22/22
f 31/31/31 21/21/21 30/30/30
f 31/31/31 20/20/20 21/21/21
f 32/32/32 20/20/20 31/31/31
f 32/32/32 19/19/19 20/20/20
f 24/24/24 29/29/29 23/23/23
f 24/24/24 33/33/33 29/29/29
f 25/25/25 33/33/33 24/24/24
f 25/25/25 34/34/34 33/33/33
f 26/26/26 34/34/34 25/25/25
f 26/26/26 35/35/35 34/34/34
f 27/27/27 35/35/35 26/26/26
f 27/27/27 36/36/36 35/35/35
f 34/34/34 37/37/37 33/33/33
f 34/34/34 38/38/38 37/37/37
f 35/35/35 38/38/38 34/34/34
f 35/35/35 39/39/39 38/38/38
f 36/36/36 39/39/39 35/35/35
f 36/36/36 40/40/40 39/39/39
f 38/38/38 3/3/3 37/37/37
f 38/38/38 1/1/1 3/3/3
f 39/39/39 1/1/1 38/38/38
f 39/39/39 5/5/5 1/1/1
f 40/40/40 5/5/5 39/39/39
f 40/40/40 7/7/7 5/5/5

v 0.384564 8.848207 -0.550969
v 0.000000 0.850001 -0.711303
v 0.000000 8.848207 -0.681035
v 0.384564 0.850001 -0.575457
v 0.622238 0.850001 -0.219805
v 0.930846 0.469363 -0.320912
v 0.930846 0.469363 0.320913
v 1.412300 0.171381 -0.464166
v 1.412300 0.171381 0.464165
v 2.220196 0.090455 -0.721385
v 2.220194 0.090455 0.721384
v 0.000000 0.850001 0.711303
v 0.384564 8.848207 0.550969
v 0.000000 8.848207 0.681035
v 0.384564 0.850001 0.575456
v 0.000000 0.469363 1.116594
v 0.585789 0.469363 0.903344
v 0.928601 0.171381 1.363861
v 1.372157 0.090455 1.888612
v 0.622237 0.850001 0.219804
v 0.622237 8.848207 0.210451
v 0.000000 0.469363 -1.116594
v 0.585789 0.469363 -0.903344
v 1.372157 0.090455 -1.888612
v 0.928601 0.171381 -1.362536
v 0.000000 0.090455 -2.334451
v 0.000000 0.171381 -1.762420
v 0.622238 8.848207 -0.210451
v 0.000000 0.171381 1.762419
v 0.000000 0.090455 2.334452

vt 0.800000 1.000000
vt 1.000000 0.390151
vt 1.000000 1.000000
vt 0.800000 0.390151
vt 0.600000 0.390151
vt 0.600000 0.301896
vt 0.400000 0.301896
vt 0.600000 0.212231
vt 0.400000 0.212231
vt 0.600000 0.074785
vt 0.400000 0.074785
vt 0.000000 0.390151
vt 0.200000 1.000000
vt 0.000000 1.000000
vt 0.200000 0.390151
vt 0.000000 0.301896
vt 0.200000 0.301896
vt 0.200000 0.212231
vt 0.200000 0.074785
vt 0.400000 0.390151
vt 0.400000 1.000000
vt 1.000000 0.301896
vt 0.800000 0.301896
vt 0.800000 0.074785
vt 0.800000 0.212231
vt 1.000000 0.074785
vt 1.000000 0.212231
vt 0.600000 1.000000
vt 0.000000 0.212231
vt 0.000000 0.074785

vn 0.606933 0.002328 -0.794749
vn 0.317496 0.255485 -0.913194
vn 0.320386 0.003585 -0.947280
vn 0.541487 0.502927 -0.673688
vn 0.922080 0.299108 -0.245566
vn 0.625144 0.748444 -0.221421
vn 0.638746 0.752958 0.158294
vn 0.327595 0.940419 -0.091069
vn 0.264501 0.960096 0.090854
vn 0.093467 0.995429 -0.019611
vn 0.090349 0.995476 0.029418
vn 0.317498 0.255485 0.913194
vn 0.606935 0.002328 0.794748
vn 0.320387 0.003585 0.947280
vn 0.541489 0.502927 0.673687
vn 0.206963 0.805809 0.554832
vn 0.399091 0.819147 0.411976
vn 0.168164 0.955866 0.240919
vn 0.076923 0.993862 0.079504
vn 0.896856 0.279155 0.343106
vn 0.980018 0.000233 0.198907
vn 0.207171 0.805641 -0.554999
vn 0.399171 0.818989 -0.412214
vn 0.076841 0.993875 -0.079424
vn 0.168337 0.955792 -0.241090
vn 0.049572 0.990298 -0.129819
vn 0.120347 0.952583 -0.279468
vn 0.953942 0.000351 -0.299990
vn 0.119957 0.952626 0.279488
vn 0.049510 0.990286 0.129936

g polygon1
s 1
usemtl mat1
f 41/41/41 42/42/42 43/43/43
f 41/41/41 44/44/44 42/42/42
f 45/45/45 44/44/44 41/41/41
f 45/45/45 46/46/46 44/44/44
f 47/47/47 46/46/46 45/45/45
f 47/47/47 48/48/48 46/46/46
f 49/49/49 48/48/48 47/47/47
f 49/49/49 50/50/50 48/48/48
f 51/51/51 50/50/50 49/49/49
f 52/52/52 53/53/53 54/54/54
f 52/52/52 55/55/55 53/53/53
f 56/56/56 55/55/55 52/52/52
f 56/56/56 57/57/57 55/55/55
f 58/58/58 57/57/57 56/56/56
f 58/58/58 49/49/49 57/57/57
f 59/59/59 49/49/49 58/58/58
f 59/59/59 51/51/51 49/49/49
f 47/47/47 57/57/57 49/49/49
f 47/47/47 55/55/55 57/57/57
f 60/60/60 55/55/55 47/47/47
f 60/60/60 53/53/53 55/55/55
f 61/61/61 53/53/53 60/60/60
f 44/44/44 62/62/62 42/42/42
f 44/44/44 63/63/63 62/62/62
f 46/46/46 63/63/63 44/44/44
f 46/46/46 48/48/48 63/63/63
f 64/64/64 48/48/48 50/50/50
f 64/64/64 65/65/65 48/48/48
f 66/66/66 65/65/65 64/64/64
f 66/66/66 67/67/67 65/65/65
f 68/68/68 45/45/45 41/41/41
f 68/68/68 61/61/61 45/45/45
f 60/60/60 45/45/45 61/61/61
f 60/60/60 47/47/47 45/45/45
f 69/69/69 58/58/58 56/56/56
f 69/69/69 70/70/70 58/58/58
f 62/62/62 65/65/65 67/67/67
f 62/62/62 63/63/63 65/65/65
f 59/59/59 58/58/58 70/70/70
f 65/65/65 63/63/63 48/48/48

