mtllib eff_enem_MA_Duon_WpnDuonLaser_End01_M.mtl

v 0.000000 0.000000 0.000000
v 20.264999 11.700029 130.421539
v 20.264992 11.700016 0.000000
v 0.000000 0.000000 130.421997
v -20.265001 -11.699986 0.000000
v -20.264996 -11.699995 130.421539
v 0.000000 0.000000 130.421997
v -0.000010 -23.399979 0.000000
v -0.000003 -23.400005 130.421539
v 0.000000 0.000000 0.000000
v -0.000002 23.400013 130.421539
v -0.000004 23.400013 0.000000
v 0.000000 0.000000 0.000000
v -20.264999 11.700029 130.421539
v -20.265001 11.700011 0.000000
v 0.000000 0.000000 130.421997
v 20.264986 -11.699980 0.000000
v 20.265001 -11.699995 130.421539

vt 0.015812 1.000000
vt 0.982251 0.000000
vt 0.982251 1.000000
vt 0.015812 0.000000
vt 0.982251 1.000000
vt 0.982251 0.000000
vt 0.015812 0.000000
vt 0.982251 1.000000
vt 0.982251 0.000000
vt 0.015812 1.000000
vt 0.982251 0.000000
vt 0.982251 1.000000
vt 0.015812 1.000000
vt 0.982251 0.000000
vt 0.982251 1.000000
vt 0.015812 0.000000
vt 0.982251 1.000000
vt 0.982251 0.000000

vn -0.500000 0.866026 0.000000
vn -0.500000 0.866026 0.000000
vn -0.500000 0.866026 0.000000
vn -0.500000 0.866026 0.000000
vn -0.500000 0.866026 0.000000
vn -0.500000 0.866026 0.000000
vn -1.000000 0.000000 0.000000
vn -1.000000 0.000000 0.000000
vn -1.000000 0.000000 0.000000
vn -1.000000 0.000000 0.000000
vn -1.000000 0.000000 0.000000
vn -1.000000 0.000000 0.000000
vn -0.500000 -0.866026 0.000000
vn -0.500000 -0.866026 0.000000
vn -0.500000 -0.866026 0.000000
vn -0.500000 -0.866026 0.000000
vn -0.500000 -0.866026 0.000000
vn -0.500000 -0.866026 0.000000

g polygon0
s 1
usemtl mat1
f 1/1/1 2/2/2 3/3/3
f 1/1/1 4/4/4 2/2/2
f 5/5/5 4/4/4 1/1/1
f 5/5/5 6/6/6 4/4/4
f 7/7/7 8/8/8 9/9/9
f 7/7/7 10/10/10 8/8/8
f 11/11/11 10/10/10 7/7/7
f 11/11/11 12/12/12 10/10/10
f 13/13/13 14/14/14 15/15/15
f 13/13/13 16/16/16 14/14/14
f 17/17/17 16/16/16 13/13/13
f 17/17/17 18/18/18 16/16/16

