mtllib eff_enem_MA_Duon_Yokoitimonji_Te_Wind1_M.mtl

v 22.551836 27.567507 60.795345
v -13.056338 15.032694 88.659569
v 20.483150 29.708994 59.690777
v -4.935951 6.186059 99.691521
v 27.458384 26.068691 62.577095
v 14.322615 1.525397 112.981834
v 32.885151 25.957973 63.054344
v 35.622173 1.010817 115.839157
v 38.176777 26.045994 61.930565
v 56.284691 0.778134 111.689697
v 42.977852 26.261078 59.879261
v 74.177887 0.521056 100.922539
v 47.046829 26.379967 56.987083
v 86.695900 0.405399 85.360016
v 49.724533 26.187426 53.010441
v 92.572067 0.354363 66.879204
v 50.801289 25.539896 48.050106
v 91.743385 -0.073596 45.614552
v 50.142071 24.494259 42.718220
v 84.046799 -0.079027 23.180042
v 48.085056 23.824841 36.783031
v 68.109543 6.314010 2.840489
v 44.406029 24.047804 32.560276
v 49.319031 14.470745 -6.358101
v 42.090889 24.275656 31.260265
v 38.998337 17.316807 -8.095889

vt 0.000000 0.818100
vt 1.000000 0.860566
vt 0.000000 0.860566
vt 1.000000 0.818100
vt 0.000000 0.735827
vt 1.000000 0.735827
vt 0.000000 0.653556
vt 1.000000 0.653556
vt 0.000000 0.571283
vt 1.000000 0.571283
vt 0.000000 0.489011
vt 1.000000 0.489012
vt 0.000000 0.406739
vt 1.000000 0.406739
vt 0.000000 0.324467
vt 1.000000 0.324467
vt 0.000000 0.242196
vt 1.000000 0.242196
vt 0.000000 0.159923
vt 1.000000 0.159923
vt 0.000000 0.077652
vt 1.000000 0.077652
vt 0.000000 -0.004620
vt 1.000000 -0.004620
vt 0.000000 -0.045756
vt 1.000000 -0.045757

vn -0.138531 -0.807780 -0.572976
vn -0.228543 -0.744690 -0.627060
vn -0.309336 -0.654607 -0.689783
vn -0.049083 -0.864714 -0.499860
vn 0.039245 -0.899621 -0.434905
vn 0.039245 -0.899621 -0.434905
vn -0.029299 -0.903735 -0.427089
vn -0.029299 -0.903735 -0.427089
vn -0.155327 -0.901121 -0.404789
vn -0.155327 -0.901121 -0.404789
vn -0.282260 -0.893995 -0.347997
vn -0.282260 -0.893995 -0.347997
vn -0.404690 -0.882684 -0.238946
vn -0.404690 -0.882684 -0.238946
vn -0.496597 -0.865261 -0.068665
vn -0.496597 -0.865261 -0.068665
vn -0.519191 -0.847832 0.107803
vn -0.519191 -0.847832 0.107803
vn -0.506530 -0.844775 0.172574
vn -0.506530 -0.844775 0.172574
vn -0.470107 -0.866170 0.169557
vn -0.470107 -0.866170 0.169557
vn -0.356912 -0.915358 0.186370
vn -0.356912 -0.915358 0.186370
vn -0.275416 -0.941841 0.192564
vn -0.275416 -0.941841 0.192564

g polygon0
s 1
usemtl mat1
f 1/1/1 2/2/2 3/3/3
f 1/1/1 4/4/4 2/2/2
f 5/5/5 4/4/4 1/1/1
f 5/5/5 6/6/6 4/4/4
f 7/7/7 6/6/6 5/5/5
f 7/7/7 8/8/8 6/6/6
f 9/9/9 8/8/8 7/7/7
f 9/9/9 10/10/10 8/8/8
f 11/11/11 10/10/10 9/9/9
f 11/11/11 12/12/12 10/10/10
f 13/13/13 12/12/12 11/11/11
f 13/13/13 14/14/14 12/12/12
f 15/15/15 14/14/14 13/13/13
f 15/15/15 16/16/16 14/14/14
f 17/17/17 16/16/16 15/15/15
f 17/17/17 18/18/18 16/16/16
f 19/19/19 18/18/18 17/17/17
f 19/19/19 20/20/20 18/18/18
f 21/21/21 20/20/20 19/19/19
f 21/21/21 22/22/22 20/20/20
f 23/23/23 22/22/22 21/21/21
f 23/23/23 24/24/24 22/22/22
f 25/25/25 24/24/24 23/23/23
f 25/25/25 26/26/26 24/24/24

v -20.044540 35.594769 55.974838
v 5.740402 2.565094 84.189163
v -16.263260 32.387558 50.446056
v -3.712860 11.287760 110.784805
v -25.139069 40.619484 59.955479
v -16.449158 24.953371 121.816025
v -30.932343 46.855595 61.907928
v -30.932343 41.913658 126.435974
v -36.725616 53.550972 61.596649
v -45.415543 60.122997 125.288612
v -41.820145 59.898052 59.059166
v -58.151855 77.385048 115.935936
v -45.601425 65.131248 54.601612
v -67.605087 91.617752 99.505951
v -47.613419 68.619415 48.761539
v -72.635025 101.104424 77.980362
v -47.613419 69.941788 42.243408
v -72.635025 104.700859 53.955494
v -45.601425 68.938873 35.833412
v -67.605057 101.973244 30.329092
v -63.371246 98.311401 19.567350

vt 0.000000 0.663592
vt 1.000000 0.745864
vt 0.000000 0.745864
vt 1.000000 0.663592
vt 0.000000 0.581320
vt 1.000000 0.581320
vt 0.000000 0.499048
vt 1.000000 0.499048
vt 0.000000 0.416776
vt 1.000000 0.416776
vt 0.000000 0.334504
vt 1.000000 0.334504
vt 0.000000 0.252232
vt 1.000000 0.252232
vt 0.000000 0.169960
vt 1.000000 0.169960
vt 0.000000 0.087688
vt 1.000000 0.087688
vt 0.000000 0.005416
vt 1.000000 0.005416
vt 1.000000 -0.035720

vn 0.753629 0.654580 0.059734
vn 0.756388 0.650357 0.070095
vn 0.756388 0.650357 0.070095
vn 0.753629 0.654580 0.059734
vn 0.753629 0.654580 0.059734
vn 0.753629 0.654580 0.059734
vn 0.766421 0.640470 0.048964
vn 0.766421 0.640470 0.048964
vn 0.780457 0.623762 0.042520
vn 0.780457 0.623762 0.042520
vn 0.795130 0.604907 0.043068
vn 0.795130 0.604907 0.043068
vn 0.809856 0.584171 0.053643
vn 0.809856 0.584171 0.053643
vn 0.820712 0.566278 0.075903
vn 0.820712 0.566278 0.075903
vn 0.822662 0.558455 0.106559
vn 0.822662 0.558455 0.106559
vn 0.818009 0.561260 0.125890
vn 0.818009 0.561260 0.125890
vn 0.818009 0.561260 0.125890

g polygon1
s 1
usemtl mat1
f 27/27/27 28/28/28 29/29/29
f 27/27/27 30/30/30 28/28/28
f 31/31/31 30/30/30 27/27/27
f 31/31/31 32/32/32 30/30/30
f 33/33/33 32/32/32 31/31/31
f 33/33/33 34/34/34 32/32/32
f 35/35/35 34/34/34 33/33/33
f 35/35/35 36/36/36 34/34/34
f 37/37/37 36/36/36 35/35/35
f 37/37/37 38/38/38 36/36/36
f 39/39/39 38/38/38 37/37/37
f 39/39/39 40/40/40 38/38/38
f 41/41/41 40/40/40 39/39/39
f 41/41/41 42/42/42 40/40/40
f 43/43/43 42/42/42 41/41/41
f 43/43/43 44/44/44 42/42/42
f 45/45/45 44/44/44 43/43/43
f 46/46/46 45/45/45 47/47/47
f 46/46/46 44/44/44 45/45/45

