mtllib eff_enem_MA_Duon_Kagemusi2_pori_S04_M.mtl

v -1.225342 0.113761 0.398137
v -0.230489 0.113761 0.074891
v -0.230489 0.113761 -0.074890
v -0.757303 0.113761 1.042338
v -1.372156 0.113761 1.888611
v 0.000000 0.113761 2.334452
v 0.000000 0.113761 3.885326
v 1.372157 0.113761 1.888611
v 2.283739 0.113761 3.143296
v 2.220195 0.113761 0.721385
v 3.695167 0.113761 1.200632
v 2.220197 0.113761 -0.721385
v 3.695168 0.113761 -1.200631
v 1.372157 0.113761 -1.888613
v 2.283740 0.113761 -3.143295
v 0.000000 0.113761 -2.334451
v 0.000000 0.113761 -3.885328
v -2.283739 0.113761 -3.143295
v -0.142450 0.113761 0.196065
v 0.000000 0.113761 1.288401
v 0.757304 0.113761 1.042338
v 1.225342 0.113761 0.398137
v 1.225343 0.113761 -0.398138
v 0.757304 0.113761 -1.042340
v 0.000000 0.113761 -1.288401
v -1.372157 0.113761 -1.888613
v -3.695168 0.113761 -1.200631
v 0.230489 0.113761 -0.074890
v 0.142450 0.113761 -0.196066
v 0.230489 0.113761 0.074891
v 0.142450 0.113761 0.196065
v 0.000000 0.113761 0.242350
v 0.000000 0.113761 -0.242350
v -0.757303 0.113761 -1.042340
v -2.220197 0.113761 -0.721385
v -3.695166 0.113761 1.200632
v -0.142450 0.113761 -0.196066
v -1.225343 0.113761 -0.398138
v -2.220195 0.113761 0.721385
v -2.283738 0.113761 3.143296

vt 0.575106 0.304963
vt 0.575106 0.390151
vt 0.424893 0.390151
vt 0.725320 0.304963
vt 0.725320 0.219775
vt 0.875532 0.219775
vt 0.875532 0.093475
vt 0.725320 0.219775
vt 0.725320 0.093475
vt 0.575106 0.219775
vt 0.575107 0.093475
vt 0.424893 0.219775
vt 0.424894 0.093475
vt 0.274681 0.219775
vt 0.274681 0.093475
vt 0.124468 0.219775
vt 0.124468 0.093475
vt 0.274681 0.093475
vt 0.725320 0.390151
vt 0.875532 0.304963
vt 0.725320 0.304963
vt 0.575106 0.304963
vt 0.424894 0.304963
vt 0.274681 0.304963
vt 0.124468 0.304963
vt 0.274681 0.219775
vt 0.424894 0.093475
vt 0.424893 0.390151
vt 0.274681 0.390151
vt 0.575106 0.390151
vt 0.725320 0.390151
vt 0.875532 0.390151
vt 0.124468 0.390151
vt 0.274681 0.304963
vt 0.424893 0.219775
vt 0.575107 0.093475
vt 0.274681 0.390151
vt 0.424894 0.304963
vt 0.575106 0.219775
vt 0.725320 0.093475

vn 0.000000 1.000000 0.000000
vn 0.000000 1.000000 0.000000
vn 0.000000 1.000000 0.000000
vn 0.000000 1.000000 0.000000
vn 0.000000 1.000000 0.000000
vn 0.000000 1.000000 0.000000
vn 0.000000 1.000000 0.000000
vn 0.000000 1.000000 0.000000
vn 0.000000 1.000000 0.000000
vn 0.000000 1.000000 0.000000
vn 0.000000 1.000000 0.000000
vn 0.000000 1.000000 0.000000
vn 0.000000 1.000000 0.000000
vn 0.000000 1.000000 0.000000
vn 0.000000 1.000000 0.000000
vn 0.000000 1.000000 0.000000
vn 0.000000 1.000000 0.000000
vn 0.000000 1.000000 0.000000
vn 0.000000 1.000000 0.000000
vn 0.000000 1.000000 0.000000
vn 0.000000 1.000000 0.000000
vn 0.000000 1.000000 0.000000
vn 0.000000 1.000000 0.000000
vn 0.000000 1.000000 0.000000
vn 0.000000 1.000000 0.000000
vn 0.000000 1.000000 0.000000
vn 0.000000 1.000000 0.000000
vn 0.000000 1.000000 0.000000
vn 0.000000 1.000000 0.000000
vn 0.000000 1.000000 0.000000
vn 0.000000 1.000000 0.000000
vn 0.000000 1.000000 0.000000
vn 0.000000 1.000000 0.000000
vn 0.000000 1.000000 0.000000
vn 0.000000 1.000000 0.000000
vn 0.000000 1.000000 0.000000
vn 0.000000 1.000000 0.000000
vn 0.000000 1.000000 0.000000
vn 0.000000 1.000000 0.000000
vn 0.000000 1.000000 0.000000

g polygon0
s 1
usemtl mat2
f 1/1/1 2/2/2 3/3/3
f 1/1/1 4/4/4 2/2/2
f 5/5/5 4/4/4 1/1/1
f 5/5/5 6/6/6 4/4/4
f 7/7/7 6/6/6 5/5/5
f 7/7/7 8/8/8 6/6/6
f 9/9/9 8/8/8 7/7/7
f 9/9/9 10/10/10 8/8/8
f 11/11/11 10/10/10 9/9/9
f 11/11/11 12/12/12 10/10/10
f 13/13/13 12/12/12 11/11/11
f 13/13/13 14/14/14 12/12/12
f 15/15/15 14/14/14 13/13/13
f 15/15/15 16/16/16 14/14/14
f 17/17/17 16/16/16 15/15/15
f 17/17/17 18/18/18 16/16/16
f 4/4/4 19/19/19 2/2/2
f 4/4/4 20/20/20 19/19/19
f 6/6/6 20/20/20 4/4/4
f 6/6/6 21/21/21 20/20/20
f 8/8/8 21/21/21 6/6/6
f 8/8/8 22/22/22 21/21/21
f 10/10/10 22/22/22 8/8/8
f 10/10/10 23/23/23 22/22/22
f 12/12/12 23/23/23 10/10/10
f 12/12/12 24/24/24 23/23/23
f 14/14/14 24/24/24 12/12/12
f 14/14/14 25/25/25 24/24/24
f 16/16/16 25/25/25 14/14/14
f 16/16/16 26/26/26 25/25/25
f 18/18/18 26/26/26 16/16/16
f 18/18/18 27/27/27 26/26/26
f 28/28/28 23/23/23 29/29/29
f 28/28/28 22/22/22 23/23/23
f 30/30/30 22/22/22 28/28/28
f 30/30/30 21/21/21 22/22/22
f 31/31/31 21/21/21 30/30/30
f 31/31/31 20/20/20 21/21/21
f 32/32/32 20/20/20 31/31/31
f 32/32/32 19/19/19 20/20/20
f 24/24/24 29/29/29 23/23/23
f 24/24/24 33/33/33 29/29/29
f 25/25/25 33/33/33 24/24/24
f 25/25/25 34/34/34 33/33/33
f 26/26/26 34/34/34 25/25/25
f 26/26/26 35/35/35 34/34/34
f 27/27/27 35/35/35 26/26/26
f 27/27/27 36/36/36 35/35/35
f 34/34/34 37/37/37 33/33/33
f 34/34/34 38/38/38 37/37/37
f 35/35/35 38/38/38 34/34/34
f 35/35/35 39/39/39 38/38/38
f 36/36/36 39/39/39 35/35/35
f 36/36/36 40/40/40 39/39/39
f 38/38/38 3/3/3 37/37/37
f 38/38/38 1/1/1 3/3/3
f 39/39/39 1/1/1 38/38/38
f 39/39/39 5/5/5 1/1/1
f 40/40/40 5/5/5 39/39/39
f 40/40/40 7/7/7 5/5/5

v 0.384564 11.772618 -0.550969
v 0.000000 1.130934 -0.711303
v 0.000000 11.772618 -0.681036
v 0.384564 1.130934 -0.575457
v 0.622237 1.130934 -0.219804
v 0.930845 0.624492 -0.320912
v 0.930844 0.624492 0.320913
v 1.412300 0.228024 -0.464165
v 1.412300 0.228024 0.464165
v 2.220196 0.113761 -0.721385
v 2.220195 0.113761 0.721385
v 0.000000 1.130934 0.711303
v 0.384564 11.772618 0.550968
v 0.000000 11.772618 0.681034
v 0.384564 1.130934 0.575456
v 0.000000 0.624492 1.116595
v 0.585788 0.624492 0.903345
v 0.928600 0.228024 1.363862
v 1.372156 0.113761 1.888611
v 0.622237 1.130934 0.219805
v 0.622237 11.772618 0.210452
v 0.000000 0.624492 -1.116594
v 0.585788 0.624492 -0.903344
v 1.372157 0.113761 -1.888613
v 0.928600 0.228024 -1.362536
v 0.000000 0.113761 -2.334451
v 0.000000 0.228024 -1.762421
v 0.622237 11.772618 -0.210452
v 0.000000 0.228024 1.762420
v 0.000000 0.113761 2.334452

vt 0.800000 1.000000
vt 1.000000 0.390151
vt 1.000000 1.000000
vt 0.800000 0.390151
vt 0.600000 0.390151
vt 0.600000 0.301896
vt 0.400000 0.301896
vt 0.600000 0.212231
vt 0.400000 0.212231
vt 0.600000 0.074785
vt 0.400000 0.074785
vt 0.000000 0.390151
vt 0.200000 1.000000
vt 0.000000 1.000000
vt 0.200000 0.390151
vt 0.000000 0.301896
vt 0.200000 0.301896
vt 0.200000 0.212231
vt 0.200000 0.074785
vt 0.400000 0.390151
vt 0.400000 1.000000
vt 1.000000 0.301896
vt 0.800000 0.301896
vt 0.800000 0.074785
vt 0.800000 0.212231
vt 1.000000 0.074785
vt 1.000000 0.212231
vt 0.600000 1.000000
vt 0.000000 0.212231
vt 0.000000 0.074785

vn 0.606935 0.001750 -0.794750
vn 0.321077 0.212063 -0.923005
vn 0.320389 0.002694 -0.947282
vn 0.568746 0.415864 -0.709638
vn 0.938062 0.242443 -0.247509
vn 0.714935 0.652199 -0.252000
vn 0.731575 0.657524 0.180168
vn 0.410276 0.904635 -0.115365
vn 0.335733 0.934909 0.115017
vn 0.131376 0.990949 -0.027564
vn 0.127000 0.991040 0.041351
vn 0.321078 0.212063 0.923005
vn 0.606935 0.001750 0.794750
vn 0.320388 0.002694 0.947283
vn 0.568746 0.415864 0.709637
vn 0.243029 0.719940 0.650095
vn 0.471440 0.735958 0.485911
vn 0.214552 0.926637 0.308726
vn 0.107963 0.987877 0.111550
vn 0.910517 0.226418 0.345967
vn 0.980019 0.000175 0.198905
vn 0.243269 0.719715 -0.650254
vn 0.471512 0.735743 -0.486167
vn 0.107849 0.987902 -0.111440
vn 0.214749 0.926533 -0.308902
vn 0.069304 0.980939 -0.181539
vn 0.154631 0.920408 -0.359079
vn 0.953942 0.000264 -0.299992
vn 0.154135 0.920476 0.359119
vn 0.069218 0.980915 0.181701

g polygon1
s 1
usemtl mat1
f 41/41/41 42/42/42 43/43/43
f 41/41/41 44/44/44 42/42/42
f 45/45/45 44/44/44 41/41/41
f 45/45/45 46/46/46 44/44/44
f 47/47/47 46/46/46 45/45/45
f 47/47/47 48/48/48 46/46/46
f 49/49/49 48/48/48 47/47/47
f 49/49/49 50/50/50 48/48/48
f 51/51/51 50/50/50 49/49/49
f 52/52/52 53/53/53 54/54/54
f 52/52/52 55/55/55 53/53/53
f 56/56/56 55/55/55 52/52/52
f 56/56/56 57/57/57 55/55/55
f 58/58/58 57/57/57 56/56/56
f 58/58/58 49/49/49 57/57/57
f 59/59/59 49/49/49 58/58/58
f 59/59/59 51/51/51 49/49/49
f 47/47/47 57/57/57 49/49/49
f 47/47/47 55/55/55 57/57/57
f 60/60/60 55/55/55 47/47/47
f 60/60/60 53/53/53 55/55/55
f 61/61/61 53/53/53 60/60/60
f 44/44/44 62/62/62 42/42/42
f 44/44/44 63/63/63 62/62/62
f 46/46/46 63/63/63 44/44/44
f 46/46/46 48/48/48 63/63/63
f 64/64/64 48/48/48 50/50/50
f 64/64/64 65/65/65 48/48/48
f 66/66/66 65/65/65 64/64/64
f 66/66/66 67/67/67 65/65/65
f 68/68/68 45/45/45 41/41/41
f 68/68/68 61/61/61 45/45/45
f 60/60/60 45/45/45 61/61/61
f 60/60/60 47/47/47 45/45/45
f 69/69/69 58/58/58 56/56/56
f 69/69/69 70/70/70 58/58/58
f 62/62/62 65/65/65 67/67/67
f 62/62/62 63/63/63 65/65/65
f 59/59/59 58/58/58 70/70/70
f 65/65/65 63/63/63 48/48/48

