mtllib WpnDuonLaser.mtl

v -0.000002 23.400013 130.000000
v -0.000010 -23.399979 0.000000
v -0.000003 -23.400005 130.000000
v -0.000004 23.400013 0.000000
v -20.264999 11.700029 130.000000
v 20.264986 -11.699980 0.000000
v 20.265001 -11.699995 130.000000
v -20.265001 11.700011 0.000000
v -20.264996 -11.699995 130.000000
v 20.264992 11.700016 0.000000
v 20.264999 11.700029 130.000000
v -20.265001 -11.699986 0.000000

vt 1.000000 0.000000
vt 0.000000 1.000000
vt 0.000000 0.000000
vt 1.000000 1.000000
vt 1.000000 0.000000
vt 0.000000 1.000000
vt 0.000000 0.000000
vt 1.000000 1.000000
vt 1.000000 0.000000
vt 0.000000 1.000000
vt 0.000000 0.000000
vt 1.000000 1.000000

vn -1.000000 0.000000 0.000000
vn -1.000000 0.000000 0.000000
vn -1.000000 0.000000 0.000000
vn -1.000000 0.000000 0.000000
vn -0.500000 -0.866025 0.000000
vn -0.500000 -0.866025 0.000000
vn -0.500000 -0.866025 0.000000
vn -0.500000 -0.866025 0.000000
vn 0.500000 -0.866025 0.000000
vn 0.500000 -0.866025 0.000000
vn 0.500000 -0.866025 0.000000
vn 0.500000 -0.866025 0.000000

g polygon0
s 1
usemtl mat2
f 1/1/1 2/2/2 3/3/3
f 1/1/1 4/4/4 2/2/2
f 5/5/5 6/6/6 7/7/7
f 5/5/5 8/8/8 6/6/6
f 9/9/9 10/10/10 11/11/11
f 9/9/9 12/12/12 10/10/10

v 28.440563 7.620624 0.000000
v 24.472145 0.000000 6.211658
v 29.443838 0.000000 0.000000
v 23.638271 6.333854 6.211658
v 25.499117 14.721914 0.000000
v 21.193495 12.236068 6.211657
v 20.819939 20.819935 0.000000
v 17.304417 17.304415 6.211658
v 14.721916 25.499113 0.000000
v 12.236071 21.193493 6.211658
v 7.620627 28.440563 0.000000
v 6.333857 23.638271 6.211658
v 0.000000 29.443832 0.000000
v 0.000000 24.472141 6.211658
v -7.620625 28.440565 0.000000
v -6.333855 23.638275 6.211658
v -14.721916 25.499119 0.000000
v -12.236070 21.193497 6.211658
v -20.819937 20.819939 0.000000
v -17.304417 17.304419 6.211658
v -25.499119 14.721918 0.000000
v -21.193497 12.236071 6.211657
v -28.440567 7.620627 0.000000
v -23.638273 6.333857 6.211658
v -29.443834 0.000000 0.000000
v -24.472143 0.000000 6.211658
v -28.440569 -7.620627 0.000000
v -23.638275 -6.333857 6.211658
v -25.499119 -14.721916 0.000000
v -21.193497 -12.236073 6.211658
v -20.819939 -20.819939 0.000000
v -17.304419 -17.304419 6.211658
v -14.721918 -25.499117 0.000000
v -12.236072 -21.193497 6.211658
v -7.620628 -28.440569 0.000000
v -6.333857 -23.638275 6.211658
v -0.000001 -29.443836 0.000000
v 0.000000 -24.472141 6.211658
v 7.620627 -28.440571 0.000000
v 6.333857 -23.638275 6.211658
v 14.721918 -25.499117 0.000000
v 12.236072 -21.193497 6.211658
v 20.819939 -20.819939 0.000000
v 17.304420 -17.304419 6.211658
v 25.499117 -14.721919 0.000000
v 21.193499 -12.236073 6.211658
v 28.440571 -7.620627 0.000000
v 23.638277 -6.333858 6.211658
v 20.784611 0.000000 11.999999
v 20.076387 5.379450 12.000000
v 17.999996 10.392301 12.000000
v 14.696937 14.696934 12.000000
v 10.392303 17.999996 12.000000
v 5.379452 20.076387 11.999997
v 0.000000 20.784605 11.999996
v -5.379451 20.076387 11.999997
v -10.392303 17.999998 11.999999
v -14.696937 14.696938 12.000000
v -17.999998 10.392304 12.000000
v -20.076389 5.379452 12.000000
v -20.784609 0.000000 11.999999
v -20.076391 -5.379453 11.999999
v -18.000000 -10.392303 11.999999
v -14.696938 -14.696936 11.999999
v -10.392304 -18.000000 11.999999
v -5.379453 -20.076389 11.999999
v 0.000000 -20.784607 11.999999
v 5.379452 -20.076389 11.999999
v 10.392304 -18.000000 11.999999
v 14.696939 -14.696938 11.999999
v 18.000000 -10.392303 11.999999
v 20.076391 -5.379453 11.999999
v 16.970564 0.000000 16.970562
v 16.392302 4.392303 16.970562
v 14.696937 8.485278 16.970562
v 11.999999 11.999996 16.970562
v 8.485280 14.696935 16.970562
v 4.392304 16.392302 16.970562
v 0.000000 16.970560 16.970562
v -4.392303 16.392303 16.970562
v -8.485280 14.696938 16.970562
v -11.999999 12.000000 16.970562
v -14.696938 8.485281 16.970562
v -16.392303 4.392304 16.970562
v -16.970562 0.000000 16.970562
v -16.392305 -4.392303 16.970562
v -14.696939 -8.485281 16.970562
v -12.000000 -12.000000 16.970562
v -8.485281 -14.696938 16.970562
v -4.392305 -16.392303 16.970562
v 0.000000 -16.970562 16.970562
v 4.392304 -16.392303 16.970562
v 8.485281 -14.696939 16.970562
v 12.000001 -12.000000 16.970562
v 14.696939 -8.485281 16.970562
v 16.392305 -4.392305 16.970562
v 12.000000 0.000000 20.784609
v 11.591106 3.105827 20.784609
v 10.392303 5.999998 20.784609
v 8.485280 8.485278 20.784609
v 5.999999 10.392302 20.784607
v 3.105828 11.591106 20.784611
v 0.000000 11.999997 20.784611
v -3.105827 11.591107 20.784611
v -5.999999 10.392303 20.784609
v -8.485280 8.485281 20.784607
v -10.392303 5.999999 20.784609
v -11.591108 3.105829 20.784611
v -11.999998 0.000000 20.784609
v -11.591109 -3.105827 20.784609
v -10.392303 -5.999999 20.784609
v -8.485281 -8.485282 20.784607
v -6.000000 -10.392304 20.784609
v -3.105829 -11.591109 20.784609
v 0.000000 -11.999999 20.784609
v 3.105828 -11.591109 20.784609
v 6.000000 -10.392304 20.784609
v 8.485281 -8.485282 20.784607
v 10.392304 -6.000001 20.784609
v 11.591110 -3.105829 20.784607
v 6.211657 0.000000 23.182220
v 5.999999 1.607695 23.182220
v 5.379452 3.105827 23.182220
v 4.392304 4.392303 23.182220
v 3.105828 5.379452 23.182220
v 1.607695 5.999998 23.182219
v 0.000000 6.211657 23.182220
v -1.607695 5.999998 23.182219
v -3.105828 5.379452 23.182220
v -4.392304 4.392305 23.182220
v -5.379452 3.105827 23.182220
v -5.999999 1.607695 23.182219
v -6.211656 0.000000 23.182220
v -6.000000 -1.607695 23.182220
v -5.379452 -3.105827 23.182220
v -4.392304 -4.392303 23.182220
v -3.105828 -5.379452 23.182220
v -1.607695 -6.000000 23.182220
v 0.000000 -6.211657 23.182220
v 1.607695 -6.000000 23.182220
v 3.105828 -5.379452 23.182220
v 4.392305 -4.392305 23.182219
v 5.379453 -3.105829 23.182219
v 6.000000 -1.607695 23.182220
v 0.000000 0.000000 24.000000

vt 1.503994 0.500000
vt 1.420661 0.500000
vt 1.503994 0.500000
vt 1.420661 0.500000
vt 1.503994 0.500000
vt 1.420661 0.500000
vt 1.503994 0.500000
vt 1.420661 0.500000
vt 1.503994 0.500000
vt 1.420661 0.500000
vt 1.503994 0.500000
vt 1.420661 0.500000
vt 1.503994 0.500000
vt 1.420661 0.500000
vt 1.503994 0.500000
vt 1.420661 0.500000
vt 1.503994 0.500000
vt 1.420661 0.500000
vt 1.503994 0.500000
vt 1.420661 0.500000
vt 1.503994 0.500000
vt 1.420661 0.500000
vt 1.503994 0.500000
vt 1.420661 0.500000
vt 1.503994 0.500000
vt 1.420661 0.500000
vt 1.503994 0.500000
vt 1.420661 0.500000
vt 1.503994 0.500000
vt 1.420661 0.500000
vt 1.503994 0.500000
vt 1.420661 0.500000
vt 1.503994 0.500000
vt 1.420661 0.500000
vt 1.503994 0.500000
vt 1.420661 0.500000
vt 1.503994 0.500000
vt 1.420661 0.500000
vt 1.503994 0.500000
vt 1.420661 0.500000
vt 1.503994 0.500000
vt 1.420661 0.500000
vt 1.503994 0.500000
vt 1.420661 0.500000
vt 1.503994 0.500000
vt 1.420661 0.500000
vt 1.503994 0.500000
vt 1.420661 0.500000
vt 1.337329 0.500000
vt 1.337329 0.500000
vt 1.337329 0.500000
vt 1.337329 0.500000
vt 1.337329 0.500000
vt 1.337329 0.500000
vt 1.337329 0.500000
vt 1.337329 0.500000
vt 1.337329 0.500000
vt 1.337329 0.500000
vt 1.337329 0.500000
vt 1.337329 0.500000
vt 1.337329 0.500000
vt 1.337329 0.500000
vt 1.337329 0.500000
vt 1.337329 0.500000
vt 1.337329 0.500000
vt 1.337329 0.500000
vt 1.337329 0.500000
vt 1.337329 0.500000
vt 1.337329 0.500000
vt 1.337329 0.500000
vt 1.337329 0.500000
vt 1.337329 0.500000
vt 1.253996 0.500000
vt 1.253996 0.500000
vt 1.253996 0.500000
vt 1.253996 0.500000
vt 1.253996 0.500000
vt 1.253996 0.500000
vt 1.253996 0.500000
vt 1.253996 0.500000
vt 1.253996 0.500000
vt 1.253996 0.500000
vt 1.253996 0.500000
vt 1.253996 0.500000
vt 1.253996 0.500000
vt 1.253996 0.500000
vt 1.253996 0.500000
vt 1.253996 0.500000
vt 1.253996 0.500000
vt 1.253996 0.500000
vt 1.253996 0.500000
vt 1.253996 0.500000
vt 1.253996 0.500000
vt 1.253996 0.500000
vt 1.253996 0.500000
vt 1.253996 0.500000
vt 1.170663 0.500000
vt 1.170663 0.500000
vt 1.170663 0.500000
vt 1.170663 0.500000
vt 1.170663 0.500000
vt 1.170663 0.500000
vt 1.170663 0.500000
vt 1.170663 0.500000
vt 1.170663 0.500000
vt 1.170663 0.500000
vt 1.170663 0.500000
vt 1.170663 0.500000
vt 1.170663 0.500000
vt 1.170663 0.500000
vt 1.170663 0.500000
vt 1.170663 0.500000
vt 1.170663 0.500000
vt 1.170663 0.500000
vt 1.170663 0.500000
vt 1.170663 0.500000
vt 1.170663 0.500000
vt 1.170663 0.500000
vt 1.170663 0.500000
vt 1.170663 0.500000
vt 1.087330 0.500000
vt 1.087330 0.500000
vt 1.087330 0.500000
vt 1.087330 0.500000
vt 1.087330 0.500000
vt 1.087330 0.500000
vt 1.087330 0.500000
vt 1.087330 0.500000
vt 1.087330 0.500000
vt 1.087330 0.500000
vt 1.087330 0.500000
vt 1.087330 0.500000
vt 1.087330 0.500000
vt 1.087330 0.500000
vt 1.087330 0.500000
vt 1.087330 0.500000
vt 1.087330 0.500000
vt 1.087330 0.500000
vt 1.087330 0.500000
vt 1.087330 0.500000
vt 1.087330 0.500000
vt 1.087330 0.500000
vt 1.087330 0.500000
vt 1.087330 0.500000
vt 1.003997 0.500000

vn 0.754121 0.202066 0.624877
vn 0.813225 0.000000 0.581949
vn 0.780723 0.000000 0.624877
vn 0.785515 0.210478 0.581949
vn 0.676126 0.390362 0.624877
vn 0.704274 0.406612 0.581949
vn 0.552055 0.552055 0.624877
vn 0.575037 0.575037 0.581949
vn 0.390362 0.676126 0.624877
vn 0.406613 0.704274 0.581949
vn 0.202066 0.754121 0.624877
vn 0.210478 0.785515 0.581949
vn 0.000000 0.780724 0.624876
vn 0.000000 0.813225 0.581949
vn -0.202066 0.754121 0.624877
vn -0.210478 0.785515 0.581949
vn -0.390362 0.676126 0.624877
vn -0.406613 0.704274 0.581949
vn -0.552055 0.552055 0.624877
vn -0.575037 0.575037 0.581949
vn -0.676126 0.390362 0.624877
vn -0.704274 0.406613 0.581949
vn -0.754121 0.202066 0.624877
vn -0.785515 0.210478 0.581949
vn -0.780724 0.000000 0.624877
vn -0.813225 0.000000 0.581949
vn -0.754121 -0.202066 0.624877
vn -0.785515 -0.210478 0.581949
vn -0.676126 -0.390362 0.624877
vn -0.704274 -0.406613 0.581949
vn -0.552055 -0.552055 0.624877
vn -0.575037 -0.575037 0.581949
vn -0.390362 -0.676126 0.624877
vn -0.406613 -0.704274 0.581949
vn -0.202066 -0.754121 0.624877
vn -0.210478 -0.785515 0.581949
vn 0.000000 -0.780723 0.624877
vn 0.000000 -0.813225 0.581949
vn 0.202066 -0.754121 0.624877
vn 0.210478 -0.785515 0.581949
vn 0.390362 -0.676126 0.624877
vn 0.406613 -0.704274 0.581949
vn 0.552055 -0.552055 0.624877
vn 0.575037 -0.575037 0.581949
vn 0.676126 -0.390362 0.624877
vn 0.704274 -0.406613 0.581949
vn 0.754121 -0.202066 0.624877
vn 0.785515 -0.210478 0.581949
vn 0.813225 0.000000 0.581949
vn 0.785515 0.210478 0.581949
vn 0.704274 0.406612 0.581949
vn 0.575037 0.575037 0.581949
vn 0.406613 0.704274 0.581949
vn 0.210478 0.785515 0.581949
vn 0.000000 0.813225 0.581949
vn -0.210478 0.785515 0.581949
vn -0.406613 0.704274 0.581949
vn -0.575037 0.575037 0.581949
vn -0.704274 0.406613 0.581949
vn -0.785515 0.210478 0.581949
vn -0.813225 0.000000 0.581949
vn -0.785515 -0.210478 0.581949
vn -0.704274 -0.406613 0.581949
vn -0.575037 -0.575037 0.581949
vn -0.406613 -0.704274 0.581949
vn -0.210478 -0.785515 0.581949
vn 0.000000 -0.813225 0.581949
vn 0.210478 -0.785515 0.581949
vn 0.406613 -0.704274 0.581949
vn 0.575037 -0.575037 0.581949
vn 0.704274 -0.406613 0.581949
vn 0.785515 -0.210478 0.581949
vn 0.707003 0.000000 0.707210
vn 0.682913 0.182986 0.707210
vn 0.612283 0.353502 0.707210
vn 0.499927 0.499927 0.707210
vn 0.353502 0.612283 0.707210
vn 0.182986 0.682913 0.707210
vn 0.000000 0.707003 0.707210
vn -0.182986 0.682913 0.707210
vn -0.353502 0.612283 0.707210
vn -0.499927 0.499927 0.707210
vn -0.612283 0.353502 0.707210
vn -0.682913 0.182986 0.707210
vn -0.707003 0.000000 0.707210
vn -0.682913 -0.182986 0.707210
vn -0.612283 -0.353502 0.707210
vn -0.499927 -0.499927 0.707210
vn -0.353502 -0.612283 0.707210
vn -0.182986 -0.682913 0.707210
vn 0.000000 -0.707003 0.707210
vn 0.182986 -0.682913 0.707210
vn 0.353501 -0.612283 0.707210
vn 0.499927 -0.499927 0.707210
vn 0.612283 -0.353502 0.707210
vn 0.682913 -0.182986 0.707210
vn 0.499890 0.000000 0.866089
vn 0.482857 0.129381 0.866089
vn 0.432917 0.249945 0.866089
vn 0.353476 0.353476 0.866089
vn 0.249945 0.432917 0.866089
vn 0.129381 0.482856 0.866089
vn 0.000000 0.499890 0.866089
vn -0.129381 0.482856 0.866089
vn -0.249945 0.432917 0.866089
vn -0.353476 0.353476 0.866089
vn -0.432917 0.249945 0.866089
vn -0.482856 0.129381 0.866089
vn -0.499890 0.000000 0.866089
vn -0.482857 -0.129381 0.866089
vn -0.432917 -0.249945 0.866089
vn -0.353475 -0.353475 0.866089
vn -0.249945 -0.432917 0.866089
vn -0.129381 -0.482857 0.866089
vn 0.000000 -0.499890 0.866089
vn 0.129381 -0.482857 0.866089
vn 0.249945 -0.432917 0.866089
vn 0.353476 -0.353475 0.866089
vn 0.432917 -0.249945 0.866089
vn 0.482856 -0.129381 0.866089
vn 0.258748 0.000000 0.965945
vn 0.249931 0.066969 0.965945
vn 0.224083 0.129374 0.965945
vn 0.182963 0.182963 0.965945
vn 0.129374 0.224082 0.965945
vn 0.066970 0.249931 0.965945
vn 0.000000 0.258748 0.965945
vn -0.066969 0.249931 0.965945
vn -0.129374 0.224082 0.965945
vn -0.182962 0.182962 0.965945
vn -0.224082 0.129374 0.965945
vn -0.249931 0.066969 0.965945
vn -0.258748 0.000000 0.965945
vn -0.249931 -0.066969 0.965945
vn -0.224082 -0.129374 0.965945
vn -0.182963 -0.182962 0.965945
vn -0.129374 -0.224082 0.965945
vn -0.066969 -0.249931 0.965945
vn 0.000000 -0.258748 0.965945
vn 0.066969 -0.249931 0.965945
vn 0.129375 -0.224082 0.965945
vn 0.182963 -0.182962 0.965945
vn 0.224082 -0.129374 0.965945
vn 0.249931 -0.066969 0.965945
vn 0.000000 0.000000 1.000000

g polygon1
s 1
usemtl mat1
f 13/13/13 14/14/14 15/15/15
f 13/13/13 16/16/16 14/14/14
f 17/17/17 16/16/16 13/13/13
f 17/17/17 18/18/18 16/16/16
f 19/19/19 18/18/18 17/17/17
f 19/19/19 20/20/20 18/18/18
f 21/21/21 20/20/20 19/19/19
f 21/21/21 22/22/22 20/20/20
f 23/23/23 22/22/22 21/21/21
f 23/23/23 24/24/24 22/22/22
f 25/25/25 24/24/24 23/23/23
f 25/25/25 26/26/26 24/24/24
f 27/27/27 26/26/26 25/25/25
f 27/27/27 28/28/28 26/26/26
f 29/29/29 28/28/28 27/27/27
f 29/29/29 30/30/30 28/28/28
f 31/31/31 30/30/30 29/29/29
f 31/31/31 32/32/32 30/30/30
f 33/33/33 32/32/32 31/31/31
f 33/33/33 34/34/34 32/32/32
f 35/35/35 34/34/34 33/33/33
f 35/35/35 36/36/36 34/34/34
f 37/37/37 36/36/36 35/35/35
f 37/37/37 38/38/38 36/36/36
f 39/39/39 38/38/38 37/37/37
f 39/39/39 40/40/40 38/38/38
f 41/41/41 40/40/40 39/39/39
f 41/41/41 42/42/42 40/40/40
f 43/43/43 42/42/42 41/41/41
f 43/43/43 44/44/44 42/42/42
f 45/45/45 44/44/44 43/43/43
f 45/45/45 46/46/46 44/44/44
f 47/47/47 46/46/46 45/45/45
f 47/47/47 48/48/48 46/46/46
f 49/49/49 48/48/48 47/47/47
f 49/49/49 50/50/50 48/48/48
f 51/51/51 50/50/50 49/49/49
f 51/51/51 52/52/52 50/50/50
f 53/53/53 52/52/52 51/51/51
f 53/53/53 54/54/54 52/52/52
f 55/55/55 54/54/54 53/53/53
f 55/55/55 56/56/56 54/54/54
f 57/57/57 56/56/56 55/55/55
f 57/57/57 58/58/58 56/56/56
f 59/59/59 58/58/58 57/57/57
f 59/59/59 60/60/60 58/58/58
f 15/15/15 60/60/60 59/59/59
f 15/15/15 14/14/14 60/60/60
f 16/16/16 61/61/61 14/14/14
f 16/16/16 62/62/62 61/61/61
f 18/18/18 62/62/62 16/16/16
f 18/18/18 63/63/63 62/62/62
f 20/20/20 63/63/63 18/18/18
f 20/20/20 64/64/64 63/63/63
f 22/22/22 64/64/64 20/20/20
f 22/22/22 65/65/65 64/64/64
f 24/24/24 65/65/65 22/22/22
f 24/24/24 66/66/66 65/65/65
f 26/26/26 66/66/66 24/24/24
f 26/26/26 67/67/67 66/66/66
f 28/28/28 67/67/67 26/26/26
f 28/28/28 68/68/68 67/67/67
f 30/30/30 68/68/68 28/28/28
f 30/30/30 69/69/69 68/68/68
f 32/32/32 69/69/69 30/30/30
f 32/32/32 70/70/70 69/69/69
f 34/34/34 70/70/70 32/32/32
f 34/34/34 71/71/71 70/70/70
f 36/36/36 71/71/71 34/34/34
f 36/36/36 72/72/72 71/71/71
f 38/38/38 72/72/72 36/36/36
f 38/38/38 73/73/73 72/72/72
f 40/40/40 73/73/73 38/38/38
f 40/40/40 74/74/74 73/73/73
f 42/42/42 74/74/74 40/40/40
f 42/42/42 75/75/75 74/74/74
f 44/44/44 75/75/75 42/42/42
f 44/44/44 76/76/76 75/75/75
f 46/46/46 76/76/76 44/44/44
f 46/46/46 77/77/77 76/76/76
f 48/48/48 77/77/77 46/46/46
f 48/48/48 78/78/78 77/77/77
f 50/50/50 78/78/78 48/48/48
f 50/50/50 79/79/79 78/78/78
f 52/52/52 79/79/79 50/50/50
f 52/52/52 80/80/80 79/79/79
f 54/54/54 80/80/80 52/52/52
f 54/54/54 81/81/81 80/80/80
f 56/56/56 81/81/81 54/54/54
f 56/56/56 82/82/82 81/81/81
f 58/58/58 82/82/82 56/56/56
f 58/58/58 83/83/83 82/82/82
f 60/60/60 83/83/83 58/58/58
f 60/60/60 84/84/84 83/83/83
f 14/14/14 84/84/84 60/60/60
f 14/14/14 61/61/61 84/84/84
f 62/62/62 85/85/85 61/61/61
f 62/62/62 86/86/86 85/85/85
f 63/63/63 86/86/86 62/62/62
f 63/63/63 87/87/87 86/86/86
f 64/64/64 87/87/87 63/63/63
f 64/64/64 88/88/88 87/87/87
f 65/65/65 88/88/88 64/64/64
f 65/65/65 89/89/89 88/88/88
f 66/66/66 89/89/89 65/65/65
f 66/66/66 90/90/90 89/89/89
f 67/67/67 90/90/90 66/66/66
f 67/67/67 91/91/91 90/90/90
f 68/68/68 91/91/91 67/67/67
f 68/68/68 92/92/92 91/91/91
f 69/69/69 92/92/92 68/68/68
f 69/69/69 93/93/93 92/92/92
f 70/70/70 93/93/93 69/69/69
f 70/70/70 94/94/94 93/93/93
f 71/71/71 94/94/94 70/70/70
f 71/71/71 95/95/95 94/94/94
f 72/72/72 95/95/95 71/71/71
f 72/72/72 96/96/96 95/95/95
f 73/73/73 96/96/96 72/72/72
f 73/73/73 97/97/97 96/96/96
f 74/74/74 97/97/97 73/73/73
f 74/74/74 98/98/98 97/97/97
f 75/75/75 98/98/98 74/74/74
f 75/75/75 99/99/99 98/98/98
f 76/76/76 99/99/99 75/75/75
f 76/76/76 100/100/100 99/99/99
f 77/77/77 100/100/100 76/76/76
f 77/77/77 101/101/101 100/100/100
f 78/78/78 101/101/101 77/77/77
f 78/78/78 102/102/102 101/101/101
f 79/79/79 102/102/102 78/78/78
f 79/79/79 103/103/103 102/102/102
f 80/80/80 103/103/103 79/79/79
f 80/80/80 104/104/104 103/103/103
f 81/81/81 104/104/104 80/80/80
f 81/81/81 105/105/105 104/104/104
f 82/82/82 105/105/105 81/81/81
f 82/82/82 106/106/106 105/105/105
f 83/83/83 106/106/106 82/82/82
f 83/83/83 107/107/107 106/106/106
f 84/84/84 107/107/107 83/83/83
f 84/84/84 108/108/108 107/107/107
f 61/61/61 108/108/108 84/84/84
f 61/61/61 85/85/85 108/108/108
f 86/86/86 109/109/109 85/85/85
f 86/86/86 110/110/110 109/109/109
f 87/87/87 110/110/110 86/86/86
f 87/87/87 111/111/111 110/110/110
f 88/88/88 111/111/111 87/87/87
f 88/88/88 112/112/112 111/111/111
f 89/89/89 112/112/112 88/88/88
f 89/89/89 113/113/113 112/112/112
f 90/90/90 113/113/113 89/89/89
f 90/90/90 114/114/114 113/113/113
f 91/91/91 114/114/114 90/90/90
f 91/91/91 115/115/115 114/114/114
f 92/92/92 115/115/115 91/91/91
f 92/92/92 116/116/116 115/115/115
f 93/93/93 116/116/116 92/92/92
f 93/93/93 117/117/117 116/116/116
f 94/94/94 117/117/117 93/93/93
f 94/94/94 118/118/118 117/117/117
f 95/95/95 118/118/118 94/94/94
f 95/95/95 119/119/119 118/118/118
f 96/96/96 119/119/119 95/95/95
f 96/96/96 120/120/120 119/119/119
f 97/97/97 120/120/120 96/96/96
f 97/97/97 121/121/121 120/120/120
f 98/98/98 121/121/121 97/97/97
f 98/98/98 122/122/122 121/121/121
f 99/99/99 122/122/122 98/98/98
f 99/99/99 123/123/123 122/122/122
f 100/100/100 123/123/123 99/99/99
f 100/100/100 124/124/124 123/123/123
f 101/101/101 124/124/124 100/100/100
f 101/101/101 125/125/125 124/124/124
f 102/102/102 125/125/125 101/101/101
f 102/102/102 126/126/126 125/125/125
f 103/103/103 126/126/126 102/102/102
f 103/103/103 127/127/127 126/126/126
f 104/104/104 127/127/127 103/103/103
f 104/104/104 128/128/128 127/127/127
f 105/105/105 128/128/128 104/104/104
f 105/105/105 129/129/129 128/128/128
f 106/106/106 129/129/129 105/105/105
f 106/106/106 130/130/130 129/129/129
f 107/107/107 130/130/130 106/106/106
f 107/107/107 131/131/131 130/130/130
f 108/108/108 131/131/131 107/107/107
f 108/108/108 132/132/132 131/131/131
f 85/85/85 132/132/132 108/108/108
f 85/85/85 109/109/109 132/132/132
f 110/110/110 133/133/133 109/109/109
f 110/110/110 134/134/134 133/133/133
f 111/111/111 134/134/134 110/110/110
f 111/111/111 135/135/135 134/134/134
f 112/112/112 135/135/135 111/111/111
f 112/112/112 136/136/136 135/135/135
f 113/113/113 136/136/136 112/112/112
f 113/113/113 137/137/137 136/136/136
f 114/114/114 137/137/137 113/113/113
f 114/114/114 138/138/138 137/137/137
f 115/115/115 138/138/138 114/114/114
f 115/115/115 139/139/139 138/138/138
f 116/116/116 139/139/139 115/115/115
f 116/116/116 140/140/140 139/139/139
f 117/117/117 140/140/140 116/116/116
f 117/117/117 141/141/141 140/140/140
f 118/118/118 141/141/141 117/117/117
f 118/118/118 142/142/142 141/141/141
f 119/119/119 142/142/142 118/118/118
f 119/119/119 143/143/143 142/142/142
f 120/120/120 143/143/143 119/119/119
f 120/120/120 144/144/144 143/143/143
f 121/121/121 144/144/144 120/120/120
f 121/121/121 145/145/145 144/144/144
f 122/122/122 145/145/145 121/121/121
f 122/122/122 146/146/146 145/145/145
f 123/123/123 146/146/146 122/122/122
f 123/123/123 147/147/147 146/146/146
f 124/124/124 147/147/147 123/123/123
f 124/124/124 148/148/148 147/147/147
f 125/125/125 148/148/148 124/124/124
f 125/125/125 149/149/149 148/148/148
f 126/126/126 149/149/149 125/125/125
f 126/126/126 150/150/150 149/149/149
f 127/127/127 150/150/150 126/126/126
f 127/127/127 151/151/151 150/150/150
f 128/128/128 151/151/151 127/127/127
f 128/128/128 152/152/152 151/151/151
f 129/129/129 152/152/152 128/128/128
f 129/129/129 153/153/153 152/152/152
f 130/130/130 153/153/153 129/129/129
f 130/130/130 154/154/154 153/153/153
f 131/131/131 154/154/154 130/130/130
f 131/131/131 155/155/155 154/154/154
f 132/132/132 155/155/155 131/131/131
f 132/132/132 156/156/156 155/155/155
f 109/109/109 156/156/156 132/132/132
f 109/109/109 133/133/133 156/156/156
f 157/157/157 133/133/133 134/134/134
f 157/157/157 156/156/156 133/133/133
f 155/155/155 156/156/156 157/157/157
f 157/157/157 154/154/154 155/155/155
f 157/157/157 153/153/153 154/154/154
f 152/152/152 153/153/153 157/157/157
f 157/157/157 151/151/151 152/152/152
f 157/157/157 150/150/150 151/151/151
f 149/149/149 150/150/150 157/157/157
f 157/157/157 148/148/148 149/149/149
f 157/157/157 147/147/147 148/148/148
f 146/146/146 147/147/147 157/157/157
f 157/157/157 145/145/145 146/146/146
f 157/157/157 144/144/144 145/145/145
f 143/143/143 144/144/144 157/157/157
f 157/157/157 142/142/142 143/143/143
f 157/157/157 141/141/141 142/142/142
f 140/140/140 141/141/141 157/157/157
f 157/157/157 139/139/139 140/140/140
f 157/157/157 138/138/138 139/139/139
f 137/137/137 138/138/138 157/157/157
f 157/157/157 136/136/136 137/137/137
f 157/157/157 135/135/135 136/136/136
f 134/134/134 135/135/135 157/157/157

