mtllib stg300_MotBeam_04.mtl

v 6877.776367 -870.891602 928.672119
v 6925.656738 -927.191345 941.020447
v 6943.619629 -892.772949 900.359863
v 6885.206543 -924.975159 980.009155
v 6845.965332 -887.405884 994.474976
v 6830.908203 -836.496887 975.959656
v 6848.871094 -802.078430 935.299133
v 6889.321777 -804.294617 896.310364
v 6877.826660 -870.858582 928.722168
v 6982.418945 -958.607361 892.114441
v 6981.827637 -868.118225 833.032043
v 6924.178711 -996.091675 975.074341
v 6841.218750 -958.607361 1033.314819
v 6782.136230 -868.118164 1032.723389
v 6781.544922 -777.629028 973.640991
v 6839.785645 -740.144714 890.681091
v 6928.562988 -841.863892 881.844543
v 6922.745117 -777.629028 832.440613

vt -0.034241 0.114990
vt 0.092529 0.120850
vt 0.092529 0.108459
vt 0.092529 0.108459
vt 0.092529 0.120850
vt 0.092529 0.108459
vt 0.092529 0.120850
vt 0.092529 0.108459
vt 0.003235 0.983643
vt 0.993103 0.977051
vt 0.993103 0.989929
vt 0.993103 0.989929
vt 0.993103 0.977051
vt 0.993103 0.989929
vt 0.993103 0.977051
vt 0.993103 0.989929
vt 0.092529 0.120850
vt 0.993103 0.977051

vn 7924809334889683200000000000000000.000000 7840161470883427500000000000000000.000000 -1.#QNAN0
vn 7924809334889683200000000000000000.000000 7840161470883427500000000000000000.000000 -1.#QNAN0
vn 7924809334889683200000000000000000.000000 7840161470883427500000000000000000.000000 -1.#QNAN0
vn 7900660838543343300000000000000000.000000 0.000000 0.000000
vn 7900660838543343300000000000000000.000000 0.000000 0.000000
vn 7924809334889683200000000000000000.000000 7840161470883427500000000000000000.000000 -1.#QNAN0
vn 7900660838543343300000000000000000.000000 0.000000 0.000000
vn 7900660838543343300000000000000000.000000 0.000000 0.000000
vn 7924809334889683200000000000000000.000000 7840161470883427500000000000000000.000000 -1.#QNAN0
vn 7924809334889683200000000000000000.000000 7840161470883427500000000000000000.000000 -1.#QNAN0
vn 7924809334889683200000000000000000.000000 7840161470883427500000000000000000.000000 -1.#QNAN0
vn 7900660838543343300000000000000000.000000 0.000000 0.000000
vn 7900660838543343300000000000000000.000000 0.000000 0.000000
vn 7924809334889683200000000000000000.000000 7840161470883427500000000000000000.000000 -1.#QNAN0
vn 7900660838543343300000000000000000.000000 0.000000 0.000000
vn 7900660838543343300000000000000000.000000 0.000000 0.000000
vn 7924809334889683200000000000000000.000000 7840161470883427500000000000000000.000000 -1.#QNAN0
vn 7924809334889683200000000000000000.000000 7840161470883427500000000000000000.000000 -1.#QNAN0

g polygon0
s 1
usemtl mat1
f 1/1/1 2/2/2 3/3/3
f 1/1/1 4/4/4 2/2/2
f 5/5/5 4/4/4 1/1/1
f 1/1/1 6/6/6 5/5/5
f 1/1/1 7/7/7 6/6/6
f 8/8/8 7/7/7 1/1/1
f 9/9/9 10/10/10 11/11/11
f 9/9/9 12/12/12 10/10/10
f 13/13/13 12/12/12 9/9/9
f 9/9/9 14/14/14 13/13/13
f 9/9/9 15/15/15 14/14/14
f 16/16/16 15/15/15 9/9/9
f 1/1/1 17/17/17 8/8/8
f 1/1/1 3/3/3 17/17/17
f 9/9/9 18/18/18 16/16/16
f 9/9/9 11/11/11 18/18/18

v 8932.484375 -233.600113 839.618347
v 6882.076660 -861.367432 935.663452
v 6886.583984 -875.038025 940.170959
v 8927.976563 -219.929626 835.110657
v 9455.087891 -54.667992 809.204102
v 6937.412109 -442.471954 2503.887451
v 6932.757813 -428.492035 2500.659424
v 6943.266602 -431.981934 2514.125000
v 6877.417480 -872.909668 930.242371
v 6928.561035 -438.738525 2490.970215
v 6891.008301 -863.385559 945.536499
v 8930.624023 -229.282578 829.296814
v 8929.813477 -224.182358 845.335815
v 9457.734375 -64.020844 803.390442
v 9456.923828 -58.920715 819.429260
v 9459.594727 -68.338463 813.711792

vt 1.888062 0.801880
vt 1.216003 0.948914
vt 1.216003 0.801880
vt 1.888062 0.948914
vt 2.061218 0.948914
vt 0.371155 0.801880
vt 0.371155 0.948914
vt 0.371155 0.801880
vt 1.216003 0.948914
vt 0.371155 0.948914
vt 1.216003 0.801880
vt 1.888062 0.948914
vt 1.888062 0.801880
vt 2.061218 0.948914
vt 2.061218 0.801880
vt 2.061218 0.801880

vn 7924809334889683200000000000000000.000000 7840161470883427500000000000000000.000000 -1.#QNAN0
vn 7924809334889683200000000000000000.000000 7840161470883427500000000000000000.000000 -1.#QNAN0
vn 7924809334889683200000000000000000.000000 7840161470883427500000000000000000.000000 -1.#QNAN0
vn 7900660838543343300000000000000000.000000 0.000000 0.000000
vn 7900660838543343300000000000000000.000000 0.000000 0.000000
vn 7924809334889683200000000000000000.000000 7840161470883427500000000000000000.000000 -1.#QNAN0
vn 7924809334889683200000000000000000.000000 7840161470883427500000000000000000.000000 -1.#QNAN0
vn 7924809334889683200000000000000000.000000 7840161470883427500000000000000000.000000 -1.#QNAN0
vn 7924809334889683200000000000000000.000000 7840161470883427500000000000000000.000000 -1.#QNAN0
vn 7924809334889683200000000000000000.000000 7840161470883427500000000000000000.000000 -1.#QNAN0
vn 7900660838543343300000000000000000.000000 0.000000 0.000000
vn 7924809334889683200000000000000000.000000 7840161470883427500000000000000000.000000 -1.#QNAN0
vn 7900660838543343300000000000000000.000000 0.000000 0.000000
vn 7924809334889683200000000000000000.000000 7840161470883427500000000000000000.000000 -1.#QNAN0
vn 7924809334889683200000000000000000.000000 7840161470883427500000000000000000.000000 -1.#QNAN0
vn 7924809334889683200000000000000000.000000 7840161470883427500000000000000000.000000 -1.#QNAN0

g polygon1
s 1
usemtl mat1
f 19/19/19 20/20/20 21/21/21
f 19/19/19 22/22/22 20/20/20
f 23/23/23 22/22/22 19/19/19
f 24/24/24 20/20/20 25/25/25
f 24/24/24 21/21/21 20/20/20
f 26/26/26 27/27/27 28/28/28
f 26/26/26 29/29/29 27/27/27
f 29/29/29 30/30/30 27/27/27
f 29/29/29 31/31/31 30/30/30
f 32/32/32 31/31/31 33/33/33
f 32/32/32 30/30/30 31/31/31
f 34/34/34 23/23/23 19/19/19

