mtllib stg300_MotLaser_c1_03.mtl

v 7827.642578 -771.305603 249.408295
v 7827.098145 -438.966797 250.691513
v 7880.257324 -472.399231 272.616638
v 7775.453613 -472.399231 228.141251
v 7828.852539 -1151.090698 246.557114

vt 0.065979 0.538086
vt 0.065979 0.616760
vt 0.059601 0.583252
vt 0.072357 0.583252
vt 0.065979 0.427551

vn 7924809334889683200000000000000000.000000 7840161470883427500000000000000000.000000 -1.#QNAN0
vn 7924809334889683200000000000000000.000000 7840161470883427500000000000000000.000000 -1.#QNAN0
vn 7924809334889683200000000000000000.000000 7840161470883427500000000000000000.000000 -1.#QNAN0
vn 7900660838543343300000000000000000.000000 0.000000 0.000000
vn 7900660838543343300000000000000000.000000 0.000000 0.000000

g polygon0
s 1
usemtl mat2
f 1/1/1 2/2/2 3/3/3
f 1/1/1 4/4/4 2/2/2
f 5/5/5 4/4/4 1/1/1
f 1/1/1 3/3/3 5/5/5

v 7829.352539 -1167.133301 245.378662
v 7828.712891 -903.215393 246.885986
v 7883.300781 -471.829163 273.443787
v 7771.685547 -471.829163 226.077591

vt 0.995483 0.069183
vt 0.995483 0.354340
vt 0.013702 0.069183
vt 0.013702 0.069183

vn 7924809334889683200000000000000000.000000 7840161470883427500000000000000000.000000 -1.#QNAN0
vn 7924809334889683200000000000000000.000000 7840161470883427500000000000000000.000000 -1.#QNAN0
vn 7924809334889683200000000000000000.000000 7840161470883427500000000000000000.000000 -1.#QNAN0
vn 7900660838543343300000000000000000.000000 0.000000 0.000000

g polygon1
s 1
usemtl mat1
f 6/6/6 7/7/7 8/8/8
f 6/6/6 9/9/9 7/7/7

v 7826.571777 -777.257141 251.931992
v 7825.056641 -441.226898 255.502289
v 7952.602051 -525.917358 307.933929
v 7699.790527 -525.917358 200.648621
v 7828.754883 -1155.734619 246.792007

vt 0.003906 0.469971
vt 0.003906 0.566223
vt -0.000610 0.517212
vt 0.008362 0.517212
vt 0.003906 0.380737

vn 7924809334889683200000000000000000.000000 7840161470883427500000000000000000.000000 -1.#QNAN0
vn 7924809334889683200000000000000000.000000 7840161470883427500000000000000000.000000 -1.#QNAN0
vn 7924809334889683200000000000000000.000000 7840161470883427500000000000000000.000000 -1.#QNAN0
vn 7900660838543343300000000000000000.000000 0.000000 0.000000
vn 7900660838543343300000000000000000.000000 0.000000 0.000000

g polygon2
s 1
usemtl mat2
f 10/10/10 11/11/11 12/12/12
f 10/10/10 13/13/13 11/11/11
f 14/14/14 13/13/13 10/10/10
f 10/10/10 12/12/12 14/14/14

v 7829.202637 -1167.106934 245.736694
v 7828.374512 -902.740295 247.683655
v 7955.272461 -530.024414 306.382263
v 7697.990723 -530.024414 197.199829

vt 0.995850 0.070496
vt 0.995850 0.355286
vt -0.000427 0.070801
vt -0.000427 0.070801

vn 7924809334889683200000000000000000.000000 7840161470883427500000000000000000.000000 -1.#QNAN0
vn 7924809334889683200000000000000000.000000 7840161470883427500000000000000000.000000 -1.#QNAN0
vn 7924809334889683200000000000000000.000000 7840161470883427500000000000000000.000000 -1.#QNAN0
vn 7900660838543343300000000000000000.000000 0.000000 0.000000

g polygon3
s 1
usemtl mat1
f 15/15/15 16/16/16 17/17/17
f 15/15/15 18/18/18 16/16/16

v 7829.157227 -776.486816 245.839264
v 7829.132813 -439.361816 245.896713
v 7869.780273 -467.361816 263.146332
v 7788.571777 -467.361816 228.683762
v 7828.925293 -1149.486816 246.385925

vt 0.127441 0.543335
vt 0.127441 0.602264
vt 0.123505 0.574585
vt 0.131195 0.574585
vt 0.127441 0.418884

vn 7924809334889683200000000000000000.000000 7840161470883427500000000000000000.000000 -1.#QNAN0
vn 7924809334889683200000000000000000.000000 7840161470883427500000000000000000.000000 -1.#QNAN0
vn 7924809334889683200000000000000000.000000 7840161470883427500000000000000000.000000 -1.#QNAN0
vn 7900660838543343300000000000000000.000000 0.000000 0.000000
vn 7900660838543343300000000000000000.000000 0.000000 0.000000

g polygon4
s 1
usemtl mat2
f 19/19/19 20/20/20 21/21/21
f 19/19/19 22/22/22 20/20/20
f 23/23/23 22/22/22 19/19/19
f 19/19/19 21/21/21 23/23/23

v 7829.315918 -1167.143066 245.465393
v 7829.450195 -908.018066 245.148895
v 7873.118164 -467.111816 263.680206
v 7785.782227 -467.111816 226.617371

vt 0.995911 0.068359
vt 0.995911 0.341858
vt -0.005615 0.068359
vt -0.005554 0.068359

vn 7924809334889683200000000000000000.000000 7840161470883427500000000000000000.000000 -1.#QNAN0
vn 7924809334889683200000000000000000.000000 7840161470883427500000000000000000.000000 -1.#QNAN0
vn 7924809334889683200000000000000000.000000 7840161470883427500000000000000000.000000 -1.#QNAN0
vn 7900660838543343300000000000000000.000000 0.000000 0.000000

g polygon5
s 1
usemtl mat1
f 24/24/24 25/25/25 26/26/26
f 24/24/24 27/27/27 25/25/25

v 7830.668945 -768.564148 242.276581
v 7830.742188 -435.900208 242.104523
v 7840.819824 -447.996033 245.462296
v 7821.269531 -447.973053 237.167496
v 7829.409180 -1150.589966 245.256165

vt 0.254639 0.561646
vt 0.254700 0.611877
vt 0.251129 0.590729
vt 0.258301 0.590729
vt 0.254700 0.419647

vn 7924809334889683200000000000000000.000000 7840161470883427500000000000000000.000000 -1.#QNAN0
vn 7924809334889683200000000000000000.000000 7840161470883427500000000000000000.000000 -1.#QNAN0
vn 7924809334889683200000000000000000.000000 7840161470883427500000000000000000.000000 -1.#QNAN0
vn 7900660838543343300000000000000000.000000 0.000000 0.000000
vn 7900660838543343300000000000000000.000000 0.000000 0.000000

g polygon6
s 1
usemtl mat2
f 28/28/28 29/29/29 30/30/30
f 28/28/28 31/31/31 29/29/29
f 32/32/32 31/31/31 28/28/28
f 28/28/28 30/30/30 32/32/32

v 7829.445801 -1167.080444 245.170151
v 7830.396484 -893.869873 242.919159
v 7842.952637 -448.094635 243.695648
v 7821.114258 -448.094635 234.428131

vt 0.996765 0.069458
vt 0.996765 0.350098
vt 0.023773 0.069458
vt 0.023773 0.069458

vn 7924809334889683200000000000000000.000000 7840161470883427500000000000000000.000000 -1.#QNAN0
vn 7924809334889683200000000000000000.000000 7840161470883427500000000000000000.000000 -1.#QNAN0
vn 7924809334889683200000000000000000.000000 7840161470883427500000000000000000.000000 -1.#QNAN0
vn 7900660838543343300000000000000000.000000 0.000000 0.000000

g polygon7
s 1
usemtl mat1
f 33/33/33 34/34/34 35/35/35
f 33/33/33 36/36/36 34/34/34

v 7766.818359 -764.520264 229.226563
v 7585.098145 -781.818420 209.146805
v 7699.793457 -524.028442 215.017990
v 7829.132813 -1167.111816 245.896896
v 7884.417480 -764.520264 279.131958
v 8025.116211 -781.818420 395.876984
v 7941.204590 -524.028442 317.465668

vt 0.724426 1.584045
vt 1.372131 1.500610
vt 0.916992 2.377563
vt 0.500000 0.000000
vt 0.275879 1.581116
vt -0.269958 1.489563
vt -0.001892 2.336182

vn 7924809334889683200000000000000000.000000 7840161470883427500000000000000000.000000 -1.#QNAN0
vn 7924809334889683200000000000000000.000000 7840161470883427500000000000000000.000000 -1.#QNAN0
vn 7924809334889683200000000000000000.000000 7840161470883427500000000000000000.000000 -1.#QNAN0
vn 7900660838543343300000000000000000.000000 0.000000 0.000000
vn 7900660838543343300000000000000000.000000 0.000000 0.000000
vn 7900660838543343300000000000000000.000000 0.000000 0.000000
vn 7900660838543343300000000000000000.000000 0.000000 0.000000

g polygon8
s 1
usemtl mat3
f 37/37/37 38/38/38 39/39/39
f 37/37/37 40/40/40 38/38/38
f 41/41/41 40/40/40 37/37/37
f 41/41/41 42/42/42 40/40/40
f 43/43/43 42/42/42 41/41/41
f 39/39/39 41/41/41 37/37/37
f 39/39/39 43/43/43 41/41/41

