mtllib stg300_MotLaser_m3_12.mtl

v -24868.962891 -1954.438354 -5530.000000
v -24870.808594 -1859.565430 -5530.000000
v -24870.044922 -1898.792480 -5462.500000
v -24870.044922 -1898.792480 -5596.162598
v -24864.439453 -2197.927734 -5530.000000

vt 0.065979 0.538086
vt 0.065979 0.616760
vt 0.059601 0.583252
vt 0.072357 0.583252
vt 0.065979 0.427551

vn 7924809334889683200000000000000000.000000 7840161470883427500000000000000000.000000 -1.#QNAN0
vn 7924809334889683200000000000000000.000000 7840161470883427500000000000000000.000000 -1.#QNAN0
vn 7924809334889683200000000000000000.000000 7840161470883427500000000000000000.000000 -1.#QNAN0
vn 7900660838543343300000000000000000.000000 0.000000 0.000000
vn 7900660838543343300000000000000000.000000 0.000000 0.000000

g polygon0
s 1
usemtl mat2
f 1/1/1 2/2/2 3/3/3
f 1/1/1 4/4/4 2/2/2
f 5/5/5 4/4/4 1/1/1
f 1/1/1 3/3/3 5/5/5

v -24863.724609 -2210.026367 -5530.000000
v -24866.091797 -2080.219971 -5530.000000
v -24869.845703 -1898.116943 -5458.812500
v -24869.845703 -1898.116943 -5601.187500

vt 0.995483 0.069183
vt 0.995483 0.354340
vt 0.013702 0.069183
vt 0.013702 0.069183

vn 7924809334889683200000000000000000.000000 7840161470883427500000000000000000.000000 -1.#QNAN0
vn 7924809334889683200000000000000000.000000 7840161470883427500000000000000000.000000 -1.#QNAN0
vn 7924809334889683200000000000000000.000000 7840161470883427500000000000000000.000000 -1.#QNAN0
vn 7900660838543343300000000000000000.000000 0.000000 0.000000

g polygon1
s 1
usemtl mat1
f 6/6/6 7/7/7 8/8/8
f 6/6/6 9/9/9 7/7/7

v -24871.300781 -2009.086792 -5530.000000
v -24875.849609 -1878.825562 -5530.000000
v -24874.019531 -1931.217773 -5368.278320
v -24874.019531 -1931.217773 -5690.370605
v -24864.582031 -2201.454834 -5529.998535

vt 0.003906 0.469971
vt 0.003906 0.566223
vt -0.000610 0.517212
vt 0.008362 0.517212
vt 0.003906 0.380737

vn 7924809334889683200000000000000000.000000 7840161470883427500000000000000000.000000 -1.#QNAN0
vn 7924809334889683200000000000000000.000000 7840161470883427500000000000000000.000000 -1.#QNAN0
vn 7924809334889683200000000000000000.000000 7840161470883427500000000000000000.000000 -1.#QNAN0
vn 7900660838543343300000000000000000.000000 0.000000 0.000000
vn 7900660838543343300000000000000000.000000 0.000000 0.000000

g polygon2
s 1
usemtl mat2
f 10/10/10 11/11/11 12/12/12
f 10/10/10 13/13/13 11/11/11
f 14/14/14 13/13/13 10/10/10
f 10/10/10 12/12/12 14/14/14

v -24863.914063 -2209.997803 -5529.998535
v -24866.742188 -2106.585938 -5530.000000
v -24872.697266 -1936.089600 -5366.105957
v -24872.697266 -1936.089600 -5693.894043

vt 0.995850 0.070496
vt 0.995850 0.355286
vt -0.000427 0.070801
vt -0.000427 0.070801

vn 7924809334889683200000000000000000.000000 7840161470883427500000000000000000.000000 -1.#QNAN0
vn 7924809334889683200000000000000000.000000 7840161470883427500000000000000000.000000 -1.#QNAN0
vn 7924809334889683200000000000000000.000000 7840161470883427500000000000000000.000000 -1.#QNAN0
vn 7900660838543343300000000000000000.000000 0.000000 0.000000

g polygon3
s 1
usemtl mat1
f 15/15/15 16/16/16 17/17/17
f 15/15/15 18/18/18 16/16/16

v -24865.046875 -1941.703125 -5530.000000
v -24865.394531 -1862.109375 -5530.000000
v -24865.267578 -1894.906250 -5478.281250
v -24865.267578 -1894.906250 -5581.625000
v -24864.267578 -2196.796875 -5530.000000

vt 0.127441 0.543335
vt 0.127441 0.602264
vt 0.123505 0.574585
vt 0.131195 0.574585
vt 0.127441 0.418884

vn 7924809334889683200000000000000000.000000 7840161470883427500000000000000000.000000 -1.#QNAN0
vn 7924809334889683200000000000000000.000000 7840161470883427500000000000000000.000000 -1.#QNAN0
vn 7924809334889683200000000000000000.000000 7840161470883427500000000000000000.000000 -1.#QNAN0
vn 7900660838543343300000000000000000.000000 0.000000 0.000000
vn 7900660838543343300000000000000000.000000 0.000000 0.000000

g polygon4
s 1
usemtl mat2
f 19/19/19 20/20/20 21/21/21
f 19/19/19 22/22/22 20/20/20
f 23/23/23 22/22/22 19/19/19
f 19/19/19 21/21/21 23/23/23

v -24863.763672 -2210.031250 -5530.000000
v -24864.158203 -2069.171875 -5530.000000
v -24864.857422 -1894.625000 -5474.421875
v -24864.857422 -1894.625000 -5585.578125

vt 0.995911 0.068359
vt 0.995911 0.341858
vt -0.005615 0.068359
vt -0.005554 0.068359

vn 7924809334889683200000000000000000.000000 7840161470883427500000000000000000.000000 -1.#QNAN0
vn 7924809334889683200000000000000000.000000 7840161470883427500000000000000000.000000 -1.#QNAN0
vn 7924809334889683200000000000000000.000000 7840161470883427500000000000000000.000000 -1.#QNAN0
vn 7900660838543343300000000000000000.000000 0.000000 0.000000

g polygon5
s 1
usemtl mat1
f 24/24/24 25/25/25 26/26/26
f 24/24/24 27/27/27 25/25/25

v -24861.484375 -1926.703857 -5530.000000
v -24861.271484 -1863.300415 -5530.000000
v -24860.873047 -1877.448364 -5517.609375
v -24860.873047 -1877.421509 -5542.460938
v -24863.578125 -2197.602051 -5529.997070

vt 0.254639 0.561646
vt 0.254700 0.611877
vt 0.251129 0.590729
vt 0.258301 0.590729
vt 0.254700 0.419647

vn 7924809334889683200000000000000000.000000 7840161470883427500000000000000000.000000 -1.#QNAN0
vn 7924809334889683200000000000000000.000000 7840161470883427500000000000000000.000000 -1.#QNAN0
vn 7924809334889683200000000000000000.000000 7840161470883427500000000000000000.000000 -1.#QNAN0
vn 7900660838543343300000000000000000.000000 0.000000 0.000000
vn 7900660838543343300000000000000000.000000 0.000000 0.000000

g polygon6
s 1
usemtl mat2
f 28/28/28 29/29/29 30/30/30
f 28/28/28 31/31/31 29/29/29
f 32/32/32 31/31/31 28/28/28
f 28/28/28 30/30/30 32/32/32

v -24863.601563 -2209.973145 -5529.997070
v -24862.093750 -2062.492676 -5530.000000
v -24859.634766 -1877.567993 -5516.119629
v -24859.634766 -1877.567993 -5543.880371

vt 0.996765 0.069458
vt 0.996765 0.350098
vt 0.023773 0.069458
vt 0.023773 0.069458

vn 7924809334889683200000000000000000.000000 7840161470883427500000000000000000.000000 -1.#QNAN0
vn 7924809334889683200000000000000000.000000 7840161470883427500000000000000000.000000 -1.#QNAN0
vn 7924809334889683200000000000000000.000000 7840161470883427500000000000000000.000000 -1.#QNAN0
vn 7900660838543343300000000000000000.000000 0.000000 0.000000

g polygon7
s 1
usemtl mat1
f 33/33/33 34/34/34 35/35/35
f 33/33/33 36/36/36 34/34/34

v -24872.908203 -2049.023193 -5604.875000
v -24874.183594 -2063.831299 -5810.171875
v -24880.652344 -1913.181152 -5683.718750
v -24864.000000 -2210.000000 -5530.000000
v -24872.908203 -2049.023193 -5455.125000
v -24874.183594 -2063.831299 -5249.828125
v -24880.652344 -1913.181152 -5376.281250

vt 0.694702 0.520874
vt 1.184509 0.476807
vt 0.917297 0.924500
vt 0.500000 0.000000
vt 0.305786 0.531677
vt -0.195618 0.485168
vt 0.107910 0.938599

vn 7924809334889683200000000000000000.000000 7840161470883427500000000000000000.000000 -1.#QNAN0
vn 7924809334889683200000000000000000.000000 7840161470883427500000000000000000.000000 -1.#QNAN0
vn 7924809334889683200000000000000000.000000 7840161470883427500000000000000000.000000 -1.#QNAN0
vn 7900660838543343300000000000000000.000000 0.000000 0.000000
vn 7900660838543343300000000000000000.000000 0.000000 0.000000
vn 7900660838543343300000000000000000.000000 0.000000 0.000000
vn 7900660838543343300000000000000000.000000 0.000000 0.000000

g polygon8
s 1
usemtl mat3
f 37/37/37 38/38/38 39/39/39
f 37/37/37 40/40/40 38/38/38
f 41/41/41 40/40/40 37/37/37
f 41/41/41 42/42/42 40/40/40
f 43/43/43 42/42/42 41/41/41
f 39/39/39 41/41/41 37/37/37
f 39/39/39 43/43/43 41/41/41

