mtllib stg300_MotLaser_d2_04.mtl

v 6528.609375 301.927124 3000.904785
v 6527.342285 634.265930 3000.322510
v 6503.859863 600.833496 3052.812012
v 6551.405273 600.833496 2949.365479
v 6531.423340 -77.857918 3002.198242

vt 0.065979 0.538086
vt 0.065979 0.616760
vt 0.059601 0.583252
vt 0.072357 0.583252
vt 0.065979 0.427551

vn 7924809334889683200000000000000000.000000 7840161470883427500000000000000000.000000 -1.#QNAN0
vn 7924809334889683200000000000000000.000000 7840161470883427500000000000000000.000000 -1.#QNAN0
vn 7924809334889683200000000000000000.000000 7840161470883427500000000000000000.000000 -1.#QNAN0
vn 7900660838543343300000000000000000.000000 0.000000 0.000000
vn 7900660838543343300000000000000000.000000 0.000000 0.000000

g polygon0
s 1
usemtl mat2
f 1/1/1 2/2/2 3/3/3
f 1/1/1 4/4/4 2/2/2
f 5/5/5 4/4/4 1/1/1
f 1/1/1 3/3/3 5/5/5

v 6532.586914 -93.900520 3002.732910
v 6531.098633 170.017349 3002.049072
v 6502.943359 601.403564 3055.830078
v 6553.579590 601.403564 2945.659668

vt 0.995483 0.069183
vt 0.995483 0.354340
vt 0.013702 0.069183
vt 0.013702 0.069183

vn 7924809334889683200000000000000000.000000 7840161470883427500000000000000000.000000 -1.#QNAN0
vn 7924809334889683200000000000000000.000000 7840161470883427500000000000000000.000000 -1.#QNAN0
vn 7924809334889683200000000000000000.000000 7840161470883427500000000000000000.000000 -1.#QNAN0
vn 7900660838543343300000000000000000.000000 0.000000 0.000000

g polygon1
s 1
usemtl mat1
f 6/6/6 7/7/7 8/8/8
f 6/6/6 9/9/9 7/7/7

v 6526.118164 295.975616 2999.759766
v 6522.594238 632.005798 2998.140137
v 6466.424805 547.315369 3124.084229
v 6581.116699 547.315369 2874.545898
v 6531.191406 -82.501839 3002.093750

vt 0.003906 0.469971
vt 0.003906 0.566223
vt -0.000610 0.517212
vt 0.008362 0.517212
vt 0.003906 0.380737

vn 7924809334889683200000000000000000.000000 7840161470883427500000000000000000.000000 -1.#QNAN0
vn 7924809334889683200000000000000000.000000 7840161470883427500000000000000000.000000 -1.#QNAN0
vn 7924809334889683200000000000000000.000000 7840161470883427500000000000000000.000000 -1.#QNAN0
vn 7900660838543343300000000000000000.000000 0.000000 0.000000
vn 7900660838543343300000000000000000.000000 0.000000 0.000000

g polygon2
s 1
usemtl mat2
f 10/10/10 11/11/11 12/12/12
f 10/10/10 13/13/13 11/11/11
f 14/14/14 13/13/13 10/10/10
f 10/10/10 12/12/12 14/14/14

v 6532.233398 -93.874207 3002.572510
v 6530.311523 170.492416 3001.687256
v 6467.897461 543.208374 3126.799316
v 6584.617188 543.208313 2872.848389

vt 0.995850 0.070496
vt 0.995850 0.355286
vt -0.000427 0.070801
vt -0.000427 0.070801

vn 7924809334889683200000000000000000.000000 7840161470883427500000000000000000.000000 -1.#QNAN0
vn 7924809334889683200000000000000000.000000 7840161470883427500000000000000000.000000 -1.#QNAN0
vn 7924809334889683200000000000000000.000000 7840161470883427500000000000000000.000000 -1.#QNAN0
vn 7900660838543343300000000000000000.000000 0.000000 0.000000

g polygon3
s 1
usemtl mat1
f 15/15/15 16/16/16 17/17/17
f 15/15/15 18/18/18 16/16/16

v 6532.131836 296.745911 3002.523926
v 6532.075195 633.870911 3002.497803
v 6513.634766 605.870911 3042.619141
v 6550.476563 605.870911 2962.461670
v 6531.592285 -76.254089 3002.275879

vt 0.127441 0.543335
vt 0.127441 0.602264
vt 0.123505 0.574585
vt 0.131195 0.574585
vt 0.127441 0.418884

vn 7924809334889683200000000000000000.000000 7840161470883427500000000000000000.000000 -1.#QNAN0
vn 7924809334889683200000000000000000.000000 7840161470883427500000000000000000.000000 -1.#QNAN0
vn 7924809334889683200000000000000000.000000 7840161470883427500000000000000000.000000 -1.#QNAN0
vn 7900660838543343300000000000000000.000000 0.000000 0.000000
vn 7900660838543343300000000000000000.000000 0.000000 0.000000

g polygon4
s 1
usemtl mat2
f 19/19/19 20/20/20 21/21/21
f 19/19/19 22/22/22 20/20/20
f 23/23/23 22/22/22 19/19/19
f 19/19/19 21/21/21 23/23/23

v 6532.500977 -93.910339 3002.693604
v 6532.813477 165.214661 3002.837158
v 6513.002930 606.120911 3045.939941
v 6552.624023 606.120911 2959.734375

vt 0.995911 0.068359
vt 0.995911 0.341858
vt -0.005615 0.068359
vt -0.005554 0.068359

vn 7924809334889683200000000000000000.000000 7840161470883427500000000000000000.000000 -1.#QNAN0
vn 7924809334889683200000000000000000.000000 7840161470883427500000000000000000.000000 -1.#QNAN0
vn 7924809334889683200000000000000000.000000 7840161470883427500000000000000000.000000 -1.#QNAN0
vn 7900660838543343300000000000000000.000000 0.000000 0.000000

g polygon5
s 1
usemtl mat1
f 24/24/24 25/25/25 26/26/26
f 24/24/24 27/27/27 25/25/25

v 6535.648438 304.668579 3004.140137
v 6535.818359 637.332520 3004.218262
v 6532.165039 625.236694 3014.192383
v 6541.032715 625.259644 2994.895020
v 6532.707520 -77.357208 3002.792969

vt 0.254639 0.561646
vt 0.254700 0.611877
vt 0.251129 0.590729
vt 0.258301 0.590729
vt 0.254700 0.419647

vn 7924809334889683200000000000000000.000000 7840161470883427500000000000000000.000000 -1.#QNAN0
vn 7924809334889683200000000000000000.000000 7840161470883427500000000000000000.000000 -1.#QNAN0
vn 7924809334889683200000000000000000.000000 7840161470883427500000000000000000.000000 -1.#QNAN0
vn 7900660838543343300000000000000000.000000 0.000000 0.000000
vn 7900660838543343300000000000000000.000000 0.000000 0.000000

g polygon6
s 1
usemtl mat2
f 28/28/28 29/29/29 30/30/30
f 28/28/28 31/31/31 29/29/29
f 32/32/32 31/31/31 28/28/28
f 28/28/28 30/30/30 32/32/32

v 6532.792480 -93.847748 3002.832031
v 6535.014160 179.362885 3003.848633
v 6533.867676 625.138062 3016.376465
v 6543.775391 625.138062 2994.820801

vt 0.996765 0.069458
vt 0.996765 0.350098
vt 0.023773 0.069458
vt 0.023773 0.069458

vn 7924809334889683200000000000000000.000000 7840161470883427500000000000000000.000000 -1.#QNAN0
vn 7924809334889683200000000000000000.000000 7840161470883427500000000000000000.000000 -1.#QNAN0
vn 7924809334889683200000000000000000.000000 7840161470883427500000000000000000.000000 -1.#QNAN0
vn 7900660838543343300000000000000000.000000 0.000000 0.000000

g polygon7
s 1
usemtl mat1
f 33/33/33 34/34/34 35/35/35
f 33/33/33 36/36/36 34/34/34

v 6550.575195 308.712463 2940.702148
v 6576.003906 291.414307 2759.652588
v 6566.753418 549.204285 2874.124756
v 6532.075195 -93.879089 3002.497803
v 6497.224609 308.712463 3056.778564
v 6376.382324 291.414337 3193.974365
v 6457.233398 549.204285 3112.411133

vt 0.724426 1.584045
vt 1.372131 1.500610
vt 0.916992 2.377563
vt 0.500000 0.000000
vt 0.275879 1.581116
vt -0.269958 1.489563
vt -0.001892 2.336182

vn 7924809334889683200000000000000000.000000 7840161470883427500000000000000000.000000 -1.#QNAN0
vn 7924809334889683200000000000000000.000000 7840161470883427500000000000000000.000000 -1.#QNAN0
vn 7924809334889683200000000000000000.000000 7840161470883427500000000000000000.000000 -1.#QNAN0
vn 7900660838543343300000000000000000.000000 0.000000 0.000000
vn 7900660838543343300000000000000000.000000 0.000000 0.000000
vn 7900660838543343300000000000000000.000000 0.000000 0.000000
vn 7900660838543343300000000000000000.000000 0.000000 0.000000

g polygon8
s 1
usemtl mat3
f 37/37/37 38/38/38 39/39/39
f 37/37/37 40/40/40 38/38/38
f 41/41/41 40/40/40 37/37/37
f 41/41/41 42/42/42 40/40/40
f 43/43/43 42/42/42 41/41/41
f 39/39/39 41/41/41 37/37/37
f 39/39/39 43/43/43 41/41/41

