mtllib stg300_MotLaser_g1_07.mtl

v 3297.721680 880.000061 2173.465088
v 3296.875732 880.000061 2125.003906
v 3297.225830 914.475037 2145.047607
v 3297.225830 846.206299 2145.047607
v 3299.635986 880.000061 2295.958252

vt 0.065979 0.538086
vt 0.065979 0.616760
vt 0.059601 0.583252
vt 0.072357 0.583252
vt 0.065979 0.427551

vn 7924809334889683200000000000000000.000000 7840161470883427500000000000000000.000000 -1.#QNAN0
vn 7924809334889683200000000000000000.000000 7840161470883427500000000000000000.000000 -1.#QNAN0
vn 7924809334889683200000000000000000.000000 7840161470883427500000000000000000.000000 -1.#QNAN0
vn 7900660838543343300000000000000000.000000 0.000000 0.000000
vn 7900660838543343300000000000000000.000000 0.000000 0.000000

g polygon0
s 1
usemtl mat2
f 1/1/1 2/2/2 3/3/3
f 1/1/1 4/4/4 2/2/2
f 5/5/5 4/4/4 1/1/1
f 1/1/1 3/3/3 5/5/5

v 3300.275635 880.000061 2304.010742
v 3299.271484 880.000061 2237.705811
v 3297.435791 916.362549 2144.700195
v 3297.435791 843.637573 2144.700195

vt 0.995483 0.069183
vt 0.995483 0.354340
vt 0.013702 0.069183
vt 0.013702 0.069183

vn 7924809334889683200000000000000000.000000 7840161470883427500000000000000000.000000 -1.#QNAN0
vn 7924809334889683200000000000000000.000000 7840161470883427500000000000000000.000000 -1.#QNAN0
vn 7924809334889683200000000000000000.000000 7840161470883427500000000000000000.000000 -1.#QNAN0
vn 7900660838543343300000000000000000.000000 0.000000 0.000000

g polygon1
s 1
usemtl mat1
f 6/6/6 7/7/7 8/8/8
f 6/6/6 9/9/9 7/7/7

v 3296.135498 880.000061 2201.474609
v 3293.814209 880.000061 2134.999756
v 3294.747803 962.529968 2161.736572
v 3294.747803 798.159607 2161.736572
v 3299.517090 880.001038 2298.306641

vt 0.003906 0.469971
vt 0.003906 0.566223
vt -0.000610 0.517212
vt 0.008362 0.517212
vt 0.003906 0.380737

vn 7924809334889683200000000000000000.000000 7840161470883427500000000000000000.000000 -1.#QNAN0
vn 7924809334889683200000000000000000.000000 7840161470883427500000000000000000.000000 -1.#QNAN0
vn 7924809334889683200000000000000000.000000 7840161470883427500000000000000000.000000 -1.#QNAN0
vn 7900660838543343300000000000000000.000000 0.000000 0.000000
vn 7900660838543343300000000000000000.000000 0.000000 0.000000

g polygon2
s 1
usemtl mat2
f 10/10/10 11/11/11 12/12/12
f 10/10/10 13/13/13 11/11/11
f 14/14/14 13/13/13 10/10/10
f 10/10/10 12/12/12 14/14/14

v 3300.086914 880.001038 2303.997559
v 3298.657471 880.000061 2240.678223
v 3295.987061 963.638489 2164.202881
v 3295.987061 796.361633 2164.203125

vt 0.995850 0.070496
vt 0.995850 0.355286
vt -0.000427 0.070801
vt -0.000427 0.070801

vn 7924809334889683200000000000000000.000000 7840161470883427500000000000000000.000000 -1.#QNAN0
vn 7924809334889683200000000000000000.000000 7840161470883427500000000000000000.000000 -1.#QNAN0
vn 7924809334889683200000000000000000.000000 7840161470883427500000000000000000.000000 -1.#QNAN0
vn 7900660838543343300000000000000000.000000 0.000000 0.000000

g polygon3
s 1
usemtl mat1
f 15/15/15 16/16/16 17/17/17
f 15/15/15 18/18/18 16/16/16

v 3300.027832 880.000061 2166.523438
v 3300.000244 880.000061 2125.734375
v 3300.000244 906.492249 2142.539063
v 3300.000244 853.554749 2142.539063
v 3299.732422 880.000061 2295.210938

vt 0.127441 0.543335
vt 0.127441 0.602264
vt 0.123505 0.574585
vt 0.131195 0.574585
vt 0.127441 0.418884

vn 7924809334889683200000000000000000.000000 7840161470883427500000000000000000.000000 -1.#QNAN0
vn 7924809334889683200000000000000000.000000 7840161470883427500000000000000000.000000 -1.#QNAN0
vn 7924809334889683200000000000000000.000000 7840161470883427500000000000000000.000000 -1.#QNAN0
vn 7900660838543343300000000000000000.000000 0.000000 0.000000
vn 7900660838543343300000000000000000.000000 0.000000 0.000000

g polygon4
s 1
usemtl mat2
f 19/19/19 20/20/20 21/21/21
f 19/19/19 22/22/22 20/20/20
f 23/23/23 22/22/22 19/19/19
f 19/19/19 21/21/21 23/23/23

v 3300.240479 880.000061 2304.015625
v 3300.405762 880.000061 2231.835938
v 3300.405762 908.468811 2142.390625
v 3300.405762 851.531311 2142.390625

vt 0.995911 0.068359
vt 0.995911 0.341858
vt -0.005615 0.068359
vt -0.005554 0.068359

vn 7924809334889683200000000000000000.000000 7840161470883427500000000000000000.000000 -1.#QNAN0
vn 7924809334889683200000000000000000.000000 7840161470883427500000000000000000.000000 -1.#QNAN0
vn 7924809334889683200000000000000000.000000 7840161470883427500000000000000000.000000 -1.#QNAN0
vn 7900660838543343300000000000000000.000000 0.000000 0.000000

g polygon5
s 1
usemtl mat1
f 24/24/24 25/25/25 26/26/26
f 24/24/24 27/27/27 25/25/25

v 3302.392090 880.000061 2158.459229
v 3302.578857 880.000061 2125.887939
v 3302.983398 886.361938 2133.153564
v 3302.982666 873.601990 2133.139893
v 3300.350586 880.002136 2295.715820

vt 0.254639 0.561646
vt 0.254700 0.611877
vt 0.251129 0.590729
vt 0.258301 0.590729
vt 0.254700 0.419647

vn 7924809334889683200000000000000000.000000 7840161470883427500000000000000000.000000 -1.#QNAN0
vn 7924809334889683200000000000000000.000000 7840161470883427500000000000000000.000000 -1.#QNAN0
vn 7924809334889683200000000000000000.000000 7840161470883427500000000000000000.000000 -1.#QNAN0
vn 7900660838543343300000000000000000.000000 0.000000 0.000000
vn 7900660838543343300000000000000000.000000 0.000000 0.000000

g polygon6
s 1
usemtl mat2
f 28/28/28 29/29/29 30/30/30
f 28/28/28 31/31/31 29/29/29
f 32/32/32 31/31/31 28/28/28
f 28/28/28 30/30/30 32/32/32

v 3300.397949 880.002136 2303.984375
v 3301.842285 880.000061 2228.216309
v 3304.219482 887.126953 2133.208740
v 3304.219482 872.873169 2133.208740

vt 0.996765 0.069458
vt 0.996765 0.350098
vt 0.023773 0.069458
vt 0.023773 0.069458

vn 7924809334889683200000000000000000.000000 7840161470883427500000000000000000.000000 -1.#QNAN0
vn 7924809334889683200000000000000000.000000 7840161470883427500000000000000000.000000 -1.#QNAN0
vn 7924809334889683200000000000000000.000000 7840161470883427500000000000000000.000000 -1.#QNAN0
vn 7900660838543343300000000000000000.000000 0.000000 0.000000

g polygon7
s 1
usemtl mat1
f 33/33/33 34/34/34 35/35/35
f 33/33/33 36/36/36 34/34/34

v 3295.261475 841.296936 2220.791748
v 3293.601318 735.179749 2228.528320
v 3291.047119 800.546936 2150.571533
v 3300.000244 880.000061 2304.000000
v 3295.261475 918.703186 2220.791748
v 3293.601318 1024.820313 2228.528320
v 3291.047119 959.453186 2150.571533

vt 0.632324 0.355591
vt 0.950806 0.346039
vt 0.776550 0.632263
vt 0.500000 0.000000
vt 0.367706 0.359802
vt 0.032440 0.328094
vt 0.244293 0.657410

vn 7924809334889683200000000000000000.000000 7840161470883427500000000000000000.000000 -1.#QNAN0
vn 7924809334889683200000000000000000.000000 7840161470883427500000000000000000.000000 -1.#QNAN0
vn 7924809334889683200000000000000000.000000 7840161470883427500000000000000000.000000 -1.#QNAN0
vn 7900660838543343300000000000000000.000000 0.000000 0.000000
vn 7900660838543343300000000000000000.000000 0.000000 0.000000
vn 7900660838543343300000000000000000.000000 0.000000 0.000000
vn 7900660838543343300000000000000000.000000 0.000000 0.000000

g polygon8
s 1
usemtl mat3
f 37/37/37 38/38/38 39/39/39
f 37/37/37 40/40/40 38/38/38
f 41/41/41 40/40/40 37/37/37
f 41/41/41 42/42/42 40/40/40
f 43/43/43 42/42/42 41/41/41
f 39/39/39 41/41/41 37/37/37
f 39/39/39 43/43/43 41/41/41

