mtllib stg300_MotLaser_g3_07.mtl

v 3297.712646 610.000061 2172.941895
v 3296.863281 610.000061 2124.285156
v 3297.214600 644.612549 2144.407227
v 3297.214600 576.068787 2144.407227
v 3299.607910 610.000061 2294.349121

vt 0.065979 0.538086
vt 0.065979 0.616760
vt 0.059601 0.583252
vt 0.072357 0.583252
vt 0.065979 0.427551

vn 7924809334889683200000000000000000.000000 7840161470883427500000000000000000.000000 -1.#QNAN0
vn 7924809334889683200000000000000000.000000 7840161470883427500000000000000000.000000 -1.#QNAN0
vn 7924809334889683200000000000000000.000000 7840161470883427500000000000000000.000000 -1.#QNAN0
vn 7900660838543343300000000000000000.000000 0.000000 0.000000
vn 7900660838543343300000000000000000.000000 0.000000 0.000000

g polygon0
s 1
usemtl mat2
f 1/1/1 2/2/2 3/3/3
f 1/1/1 4/4/4 2/2/2
f 5/5/5 4/4/4 1/1/1
f 1/1/1 3/3/3 5/5/5

v 3300.275635 610.000061 2304.018555
v 3299.266846 610.000061 2237.440186
v 3297.424561 646.506287 2144.059570
v 3297.424561 573.493774 2144.059570

vt 0.995483 0.069183
vt 0.995483 0.354340
vt 0.013702 0.069183
vt 0.013702 0.069183

vn 7924809334889683200000000000000000.000000 7840161470883427500000000000000000.000000 -1.#QNAN0
vn 7924809334889683200000000000000000.000000 7840161470883427500000000000000000.000000 -1.#QNAN0
vn 7924809334889683200000000000000000.000000 7840161470883427500000000000000000.000000 -1.#QNAN0
vn 7900660838543343300000000000000000.000000 0.000000 0.000000

g polygon1
s 1
usemtl mat1
f 6/6/6 7/7/7 8/8/8
f 6/6/6 9/9/9 7/7/7

v 3296.121338 610.000061 2201.062988
v 3293.790527 610.000061 2134.321289
v 3294.728027 692.861267 2161.165527
v 3294.728027 527.831116 2161.165527
v 3299.477051 610.001221 2297.161133

vt 0.003906 0.469971
vt 0.003906 0.566223
vt -0.000610 0.517212
vt 0.008362 0.517212
vt 0.003906 0.380737

vn 7924809334889683200000000000000000.000000 7840161470883427500000000000000000.000000 -1.#QNAN0
vn 7924809334889683200000000000000000.000000 7840161470883427500000000000000000.000000 -1.#QNAN0
vn 7924809334889683200000000000000000.000000 7840161470883427500000000000000000.000000 -1.#QNAN0
vn 7900660838543343300000000000000000.000000 0.000000 0.000000
vn 7900660838543343300000000000000000.000000 0.000000 0.000000

g polygon2
s 1
usemtl mat2
f 10/10/10 11/11/11 12/12/12
f 10/10/10 13/13/13 11/11/11
f 14/14/14 13/13/13 10/10/10
f 10/10/10 12/12/12 14/14/14

v 3300.086914 610.001221 2303.997803
v 3298.648682 610.000061 2240.424072
v 3295.967285 693.974243 2163.642090
v 3295.967285 526.025879 2163.642090

vt 0.995850 0.070496
vt 0.995850 0.355286
vt -0.000427 0.070801
vt -0.000427 0.070801

vn 7924809334889683200000000000000000.000000 7840161470883427500000000000000000.000000 -1.#QNAN0
vn 7924809334889683200000000000000000.000000 7840161470883427500000000000000000.000000 -1.#QNAN0
vn 7924809334889683200000000000000000.000000 7840161470883427500000000000000000.000000 -1.#QNAN0
vn 7900660838543343300000000000000000.000000 0.000000 0.000000

g polygon3
s 1
usemtl mat1
f 15/15/15 16/16/16 17/17/17
f 15/15/15 18/18/18 16/16/16

v 3300.027832 610.000061 2167.492188
v 3300.000244 610.000061 2126.992188
v 3300.000244 636.304749 2143.679688
v 3300.000244 583.734436 2143.679688
v 3299.732422 610.000061 2293.492188

vt 0.127441 0.543335
vt 0.127441 0.602264
vt 0.123505 0.574585
vt 0.131195 0.574585
vt 0.127441 0.418884

vn 7924809334889683200000000000000000.000000 7840161470883427500000000000000000.000000 -1.#QNAN0
vn 7924809334889683200000000000000000.000000 7840161470883427500000000000000000.000000 -1.#QNAN0
vn 7924809334889683200000000000000000.000000 7840161470883427500000000000000000.000000 -1.#QNAN0
vn 7900660838543343300000000000000000.000000 0.000000 0.000000
vn 7900660838543343300000000000000000.000000 0.000000 0.000000

g polygon4
s 1
usemtl mat2
f 19/19/19 20/20/20 21/21/21
f 19/19/19 22/22/22 20/20/20
f 23/23/23 22/22/22 19/19/19
f 19/19/19 21/21/21 23/23/23

v 3300.240479 610.000061 2304.023438
v 3300.405762 610.000061 2232.343750
v 3300.405762 638.265686 2143.531250
v 3300.405762 581.734436 2143.531250

vt 0.995911 0.068359
vt 0.995911 0.341858
vt -0.005615 0.068359
vt -0.005554 0.068359

vn 7924809334889683200000000000000000.000000 7840161470883427500000000000000000.000000 -1.#QNAN0
vn 7924809334889683200000000000000000.000000 7840161470883427500000000000000000.000000 -1.#QNAN0
vn 7924809334889683200000000000000000.000000 7840161470883427500000000000000000.000000 -1.#QNAN0
vn 7900660838543343300000000000000000.000000 0.000000 0.000000

g polygon5
s 1
usemtl mat1
f 24/24/24 25/25/25 26/26/26
f 24/24/24 27/27/27 25/25/25

v 3302.387939 610.000061 2158.695313
v 3302.573975 610.000061 2126.177002
v 3302.978516 616.351624 2133.430908
v 3302.977783 603.612366 2133.416992
v 3300.379150 610.002502 2294.088623

vt 0.254639 0.561646
vt 0.254700 0.611877
vt 0.251129 0.590729
vt 0.258301 0.590729
vt 0.254700 0.419647

vn 7924809334889683200000000000000000.000000 7840161470883427500000000000000000.000000 -1.#QNAN0
vn 7924809334889683200000000000000000.000000 7840161470883427500000000000000000.000000 -1.#QNAN0
vn 7924809334889683200000000000000000.000000 7840161470883427500000000000000000.000000 -1.#QNAN0
vn 7900660838543343300000000000000000.000000 0.000000 0.000000
vn 7900660838543343300000000000000000.000000 0.000000 0.000000

g polygon6
s 1
usemtl mat2
f 28/28/28 29/29/29 30/30/30
f 28/28/28 31/31/31 29/29/29
f 32/32/32 31/31/31 28/28/28
f 28/28/28 30/30/30 32/32/32

v 3300.397949 610.002502 2303.979980
v 3301.840332 610.000061 2228.339355
v 3304.214844 617.115356 2133.485840
v 3304.214844 602.884705 2133.485840

vt 0.996765 0.069458
vt 0.996765 0.350098
vt 0.023773 0.069458
vt 0.023773 0.069458

vn 7924809334889683200000000000000000.000000 7840161470883427500000000000000000.000000 -1.#QNAN0
vn 7924809334889683200000000000000000.000000 7840161470883427500000000000000000.000000 -1.#QNAN0
vn 7924809334889683200000000000000000.000000 7840161470883427500000000000000000.000000 -1.#QNAN0
vn 7900660838543343300000000000000000.000000 0.000000 0.000000

g polygon7
s 1
usemtl mat1
f 33/33/33 34/34/34 35/35/35
f 33/33/33 36/36/36 34/34/34

v 3295.277832 571.390686 2220.978516
v 3293.616211 465.515686 2228.699463
v 3291.078369 530.726624 2150.929443
v 3300.000244 610.000061 2304.000000
v 3295.277832 648.609436 2220.978516
v 3293.616211 754.484436 2228.699463
v 3291.078369 689.273499 2150.929443

vt 0.632019 0.354797
vt 0.949738 0.345398
vt 0.775879 0.630829
vt 0.500000 0.000000
vt 0.368011 0.358978
vt 0.033508 0.327332
vt 0.244934 0.656036

vn 7924809334889683200000000000000000.000000 7840161470883427500000000000000000.000000 -1.#QNAN0
vn 7924809334889683200000000000000000.000000 7840161470883427500000000000000000.000000 -1.#QNAN0
vn 7924809334889683200000000000000000.000000 7840161470883427500000000000000000.000000 -1.#QNAN0
vn 7900660838543343300000000000000000.000000 0.000000 0.000000
vn 7900660838543343300000000000000000.000000 0.000000 0.000000
vn 7900660838543343300000000000000000.000000 0.000000 0.000000
vn 7900660838543343300000000000000000.000000 0.000000 0.000000

g polygon8
s 1
usemtl mat3
f 37/37/37 38/38/38 39/39/39
f 37/37/37 40/40/40 38/38/38
f 41/41/41 40/40/40 37/37/37
f 41/41/41 42/42/42 40/40/40
f 43/43/43 42/42/42 41/41/41
f 39/39/39 41/41/41 37/37/37
f 39/39/39 43/43/43 41/41/41

